<svg width="13" height="13" viewBox="0 0 13 13" fill="none" xmlns="http://www.w3.org/2000/svg">
    <circle cx="6.5" cy="6.5" r="6.5" fill="#01157E"/>
    <path d="M10.426 7.00009C10.7915 7.19465 11.0001 7.41912 11.0001 7.65838V6.3418C11.0001 6.58105 10.7915 6.80553 10.426 7.00009Z" fill="white"/>
    <path d="M11.0001 7.65838C11.0001 7.41912 10.7915 7.19465 10.426 7.00009C9.69131 7.39111 8.32259 7.66078 6.73828 7.6832V8.99978C9.11088 8.96623 11.0001 8.3785 11.0001 7.65838Z" fill="white"/>
    <path d="M10.5716 6.05214C10.5716 6.29896 10.3019 6.52762 9.84232 6.71557C9.47612 6.46687 8.23757 6.28029 6.73828 6.26395V4.89514C8.87408 4.92703 10.5716 5.43284 10.5716 6.05214Z" fill="white"/>
    <path d="M2.57402 6.10507C2.20848 6.29963 1.99986 6.5241 1.99986 6.76336V5.44678C1.99986 5.68603 2.20848 5.91051 2.57402 6.10507Z" fill="white"/>
    <path d="M1.99986 6.76336C1.99986 6.5241 2.20848 6.29963 2.57402 6.10507C3.30869 6.4961 4.67741 6.76576 6.26172 6.78818V8.10476C3.88912 8.07121 1.99986 7.48348 1.99986 6.76336Z" fill="white"/>
    <path d="M2.42842 5.15699C2.42842 5.40382 2.69811 5.63248 3.15768 5.82043C3.52388 5.57173 4.76243 5.38515 6.26172 5.36881V4C4.12592 4.03189 2.42842 4.5377 2.42842 5.15699Z" fill="white"/>
</svg>
