<svg width="219" height="227" viewBox="0 0 219 227" fill="none" xmlns="http://www.w3.org/2000/svg">
<g opacity="0.8">
<mask id="path-1-inside-1_1_3" fill="white">
<path d="M0 93H73V281H0V93Z"/>
</mask>
<path d="M0 93H73V281H0V93Z" fill="url(#paint0_linear_1_3)"/>
<path d="M0 93V94H73V93V92H0V93Z" fill="#0021CC" mask="url(#path-1-inside-1_1_3)"/>
</g>
<g opacity="0.8">
<mask id="path-3-inside-2_1_3" fill="white">
<path d="M73 49H146V281H73V49Z"/>
</mask>
<path d="M73 49H146V281H73V49Z" fill="url(#paint1_linear_1_3)"/>
<path d="M73 49V50H146V49V48H73V49Z" fill="#0021CC" mask="url(#path-3-inside-2_1_3)"/>
</g>
<g opacity="0.8">
<mask id="path-5-inside-3_1_3" fill="white">
<path d="M146 0H219V281H146V0Z"/>
</mask>
<path d="M146 0H219V281H146V0Z" fill="url(#paint2_linear_1_3)"/>
<path d="M146 0V1H219V0V-1H146V0Z" fill="#0021CC" mask="url(#path-5-inside-3_1_3)"/>
</g>
<defs>
<linearGradient id="paint0_linear_1_3" x1="36.5" y1="67.074" x2="36.5" y2="281" gradientUnits="userSpaceOnUse">
<stop stop-color="#0021CC"/>
<stop offset="1" stop-color="white" stop-opacity="0"/>
</linearGradient>
<linearGradient id="paint1_linear_1_3" x1="109.5" y1="17.0062" x2="109.5" y2="281" gradientUnits="userSpaceOnUse">
<stop stop-color="#0021CC"/>
<stop offset="1" stop-color="white" stop-opacity="0"/>
</linearGradient>
<linearGradient id="paint2_linear_1_3" x1="182.5" y1="-38.7512" x2="182.5" y2="281" gradientUnits="userSpaceOnUse">
<stop stop-color="#0021CC"/>
<stop offset="1" stop-color="white" stop-opacity="0"/>
</linearGradient>
</defs>
</svg>
