<svg width="230" height="227" viewBox="0 0 230 227" fill="none" xmlns="http://www.w3.org/2000/svg">
<circle cx="108.768" cy="108.768" r="71.2253" stroke="#A6A6A6" stroke-width="0.701727" stroke-dasharray="0.7 4.21"/>
<circle cx="108.768" cy="108.768" r="68.0675" fill="#F8F8F8"/>
<g filter="url(#filter0_d_344_777)">
<circle cx="108.542" cy="108.542" r="57.5416" fill="white"/>
</g>
<path d="M78.1782 106V104.66L82.3228 100.366C82.7653 99.8998 83.1301 99.4911 83.4172 99.1402C83.7083 98.7854 83.9256 98.4485 84.0691 98.1295C84.2126 97.8105 84.2844 97.4716 84.2844 97.1128C84.2844 96.7061 84.1887 96.3552 83.9973 96.0602C83.806 95.7612 83.5448 95.5319 83.2139 95.3724C82.8829 95.209 82.5102 95.1272 82.0955 95.1272C81.6569 95.1272 81.2742 95.2169 80.9472 95.3963C80.6203 95.5758 80.3691 95.8289 80.1937 96.1559C80.0182 96.4828 79.9305 96.8656 79.9305 97.3042H78.1662C78.1662 96.5586 78.3377 95.9067 78.6806 95.3485C79.0234 94.7903 79.4939 94.3577 80.092 94.0507C80.69 93.7397 81.3698 93.5842 82.1314 93.5842C82.9009 93.5842 83.5787 93.7377 84.1648 94.0447C84.7549 94.3477 85.2154 94.7624 85.5463 95.2887C85.8772 95.811 86.0427 96.4011 86.0427 97.059C86.0427 97.5135 85.957 97.958 85.7855 98.3926C85.6181 98.8272 85.325 99.3117 84.9064 99.8459C84.4877 100.376 83.9056 101.02 83.16 101.778L80.7259 104.325V104.415H86.2401V106H78.1782ZM92.5496 106.167C91.8001 106.167 91.1262 106.024 90.5282 105.737C89.9341 105.446 89.4596 105.047 89.1048 104.541C88.7499 104.034 88.5606 103.456 88.5366 102.806H90.3308C90.3747 103.333 90.6079 103.765 91.0306 104.104C91.4532 104.443 91.9595 104.612 92.5496 104.612C93.0201 104.612 93.4368 104.505 93.7996 104.29C94.1664 104.07 94.4535 103.769 94.6608 103.386C94.8721 103.004 94.9778 102.567 94.9778 102.077C94.9778 101.578 94.8701 101.134 94.6548 100.743C94.4395 100.352 94.1425 100.045 93.7637 99.822C93.3889 99.5987 92.9583 99.4851 92.4719 99.4811C92.1011 99.4811 91.7283 99.5449 91.3535 99.6725C90.9787 99.8001 90.6757 99.9675 90.4445 100.175L88.7519 99.9237L89.4397 93.7517H96.1739V95.3365H90.9767L90.588 98.7634H90.6598C90.899 98.5322 91.216 98.3388 91.6107 98.1833C92.0094 98.0278 92.436 97.9501 92.8905 97.9501C93.6361 97.9501 94.3 98.1275 94.8821 98.4823C95.4682 98.8372 95.9287 99.3216 96.2636 99.9356C96.6025 100.546 96.77 101.247 96.766 102.041C96.77 102.834 96.5905 103.542 96.2277 104.164C95.8689 104.786 95.3705 105.276 94.7326 105.635C94.0986 105.99 93.371 106.167 92.5496 106.167ZM105.014 106.167C104.265 106.167 103.591 106.024 102.993 105.737C102.399 105.446 101.924 105.047 101.569 104.541C101.215 104.034 101.025 103.456 101.001 102.806H102.795C102.839 103.333 103.073 103.765 103.495 104.104C103.918 104.443 104.424 104.612 105.014 104.612C105.485 104.612 105.901 104.505 106.264 104.29C106.631 104.07 106.918 103.769 107.125 103.386C107.337 103.004 107.442 102.567 107.442 102.077C107.442 101.578 107.335 101.134 107.119 100.743C106.904 100.352 106.607 100.045 106.228 99.822C105.854 99.5987 105.423 99.4851 104.937 99.4811C104.566 99.4811 104.193 99.5449 103.818 99.6725C103.443 99.8001 103.14 99.9675 102.909 100.175L101.217 99.9237L101.904 93.7517H108.639V95.3365H103.441L103.053 98.7634H103.124C103.364 98.5322 103.681 98.3388 104.075 98.1833C104.474 98.0278 104.901 97.9501 105.355 97.9501C106.101 97.9501 106.765 98.1275 107.347 98.4823C107.933 98.8372 108.393 99.3216 108.728 99.9356C109.067 100.546 109.235 101.247 109.231 102.041C109.235 102.834 109.055 103.542 108.692 104.164C108.334 104.786 107.835 105.276 107.197 105.635C106.563 105.99 105.836 106.167 105.014 106.167ZM116.062 93.7517V106H114.208V95.6057H114.136L111.206 97.5195V95.7492L114.262 93.7517H116.062ZM123.418 106.167C122.669 106.167 121.995 106.024 121.397 105.737C120.803 105.446 120.328 105.047 119.973 104.541C119.618 104.034 119.429 103.456 119.405 102.806H121.199C121.243 103.333 121.476 103.765 121.899 104.104C122.322 104.443 122.828 104.612 123.418 104.612C123.889 104.612 124.305 104.505 124.668 104.29C125.035 104.07 125.322 103.769 125.529 103.386C125.741 103.004 125.846 102.567 125.846 102.077C125.846 101.578 125.739 101.134 125.523 100.743C125.308 100.352 125.011 100.045 124.632 99.822C124.257 99.5987 123.827 99.4851 123.34 99.4811C122.97 99.4811 122.597 99.5449 122.222 99.6725C121.847 99.8001 121.544 99.9675 121.313 100.175L119.62 99.9237L120.308 93.7517H127.042V95.3365H121.845L121.457 98.7634H121.528C121.768 98.5322 122.084 98.3388 122.479 98.1833C122.878 98.0278 123.305 97.9501 123.759 97.9501C124.505 97.9501 125.168 98.1275 125.751 98.4823C126.337 98.8372 126.797 99.3216 127.132 99.9356C127.471 100.546 127.638 101.247 127.635 102.041C127.638 102.834 127.459 103.542 127.096 104.164C126.737 104.786 126.239 105.276 125.601 105.635C124.967 105.99 124.24 106.167 123.418 106.167ZM135.638 101.204H129.317V99.6366H135.614C136.156 99.6366 136.605 99.5469 136.96 99.3675C137.315 99.1841 137.578 98.9329 137.749 98.6139C137.921 98.291 138.006 97.9202 138.006 97.5015C138.006 97.0869 137.921 96.7161 137.749 96.3891C137.578 96.0622 137.317 95.805 136.966 95.6176C136.615 95.4262 136.172 95.3306 135.638 95.3306H133.031V106H131.188V93.7517H135.638C136.567 93.7517 137.343 93.9191 137.965 94.254C138.591 94.589 139.059 95.0395 139.37 95.6057C139.685 96.1718 139.842 96.8018 139.842 97.4955C139.842 98.1973 139.683 98.8292 139.364 99.3914C139.049 99.9496 138.579 100.392 137.953 100.719C137.331 101.042 136.559 101.204 135.638 101.204ZM135.728 102.232V103.805H129.317V102.232H135.728Z" fill="#292D30"/>
<path d="M86.8735 126.85V124.021H87.3782C87.5501 123.876 87.7108 123.671 87.8603 123.404C88.0099 123.137 88.137 122.777 88.2416 122.324C88.3463 121.87 88.4185 121.288 88.4584 120.578L88.6378 117.345H93.3588V124.021H94.226V126.839H93.1196V125H87.98V126.85H86.8735ZM88.7388 124.021H92.2524V118.339H89.6844L89.5648 120.578C89.5324 121.119 89.4789 121.605 89.4041 122.036C89.3318 122.467 89.2384 122.848 89.1238 123.18C89.0116 123.509 88.8833 123.789 88.7388 124.021ZM97.876 125.116C97.3104 125.116 96.8232 124.995 96.4145 124.753C96.0083 124.509 95.6943 124.166 95.4726 123.725C95.2533 123.282 95.1436 122.762 95.1436 122.167C95.1436 121.579 95.2533 121.06 95.4726 120.612C95.6943 120.163 96.0033 119.813 96.3996 119.561C96.7983 119.31 97.2643 119.184 97.7975 119.184C98.1215 119.184 98.4355 119.237 98.7395 119.345C99.0435 119.452 99.3164 119.62 99.5581 119.849C99.7998 120.078 99.9904 120.376 100.13 120.743C100.27 121.106 100.339 121.549 100.339 122.069V122.466H95.7753V121.628H99.2441C99.2441 121.334 99.1843 121.074 99.0647 120.847C98.9451 120.618 98.7769 120.437 98.5601 120.305C98.3458 120.173 98.0941 120.107 97.805 120.107C97.491 120.107 97.2169 120.184 96.9827 120.339C96.7509 120.491 96.5715 120.69 96.4444 120.937C96.3198 121.181 96.2575 121.447 96.2575 121.733V122.387C96.2575 122.771 96.3248 123.097 96.4594 123.367C96.5964 123.636 96.7871 123.841 97.0313 123.983C97.2755 124.123 97.5608 124.193 97.8872 124.193C98.0991 124.193 98.2922 124.163 98.4666 124.103C98.6411 124.041 98.7918 123.948 98.9189 123.826C99.046 123.704 99.1432 123.553 99.2105 123.374L100.268 123.565C100.184 123.876 100.032 124.149 99.8123 124.383C99.5955 124.615 99.3226 124.796 98.9937 124.925C98.6672 125.052 98.2947 125.116 97.876 125.116ZM101.579 125V119.259H102.697V121.666H103.235L105.13 119.259H106.513L104.289 122.051L106.54 125H105.153L103.422 122.705H102.697V125H101.579ZM109.078 125.127C108.715 125.127 108.386 125.06 108.092 124.925C107.798 124.788 107.565 124.59 107.393 124.331C107.223 124.072 107.139 123.754 107.139 123.378C107.139 123.054 107.201 122.787 107.325 122.578C107.45 122.369 107.618 122.203 107.83 122.081C108.042 121.959 108.279 121.866 108.54 121.804C108.802 121.742 109.069 121.694 109.34 121.662C109.684 121.622 109.963 121.59 110.177 121.565C110.392 121.537 110.547 121.494 110.645 121.434C110.742 121.374 110.79 121.277 110.79 121.142V121.116C110.79 120.79 110.698 120.537 110.514 120.358C110.332 120.178 110.06 120.088 109.699 120.088C109.323 120.088 109.026 120.172 108.809 120.339C108.595 120.503 108.447 120.686 108.365 120.888L107.314 120.649C107.439 120.3 107.621 120.019 107.86 119.804C108.102 119.588 108.38 119.431 108.693 119.333C109.007 119.234 109.338 119.184 109.684 119.184C109.913 119.184 110.156 119.211 110.413 119.266C110.672 119.318 110.914 119.416 111.138 119.558C111.365 119.7 111.55 119.903 111.695 120.167C111.84 120.429 111.912 120.769 111.912 121.187V125H110.82V124.215H110.775C110.703 124.36 110.595 124.502 110.45 124.641C110.306 124.781 110.12 124.897 109.893 124.989C109.667 125.081 109.395 125.127 109.078 125.127ZM109.321 124.23C109.63 124.23 109.895 124.169 110.114 124.047C110.336 123.925 110.504 123.765 110.619 123.568C110.736 123.369 110.794 123.156 110.794 122.929V122.189C110.754 122.229 110.677 122.266 110.562 122.301C110.45 122.334 110.322 122.362 110.177 122.387C110.033 122.41 109.892 122.431 109.755 122.451C109.618 122.468 109.503 122.483 109.411 122.496C109.194 122.523 108.996 122.569 108.817 122.634C108.64 122.699 108.498 122.792 108.391 122.914C108.286 123.034 108.234 123.193 108.234 123.393C108.234 123.669 108.336 123.879 108.54 124.021C108.745 124.16 109.005 124.23 109.321 124.23ZM117.83 117.121L118.293 117.827C118.121 117.984 117.926 118.096 117.706 118.163C117.49 118.228 117.239 118.269 116.955 118.287C116.671 118.302 116.346 118.315 115.98 118.328C115.566 118.34 115.226 118.43 114.959 118.597C114.692 118.761 114.487 119.006 114.342 119.33C114.2 119.651 114.108 120.055 114.066 120.541H114.137C114.324 120.184 114.583 119.918 114.914 119.741C115.248 119.564 115.623 119.475 116.039 119.475C116.503 119.475 116.915 119.581 117.277 119.793C117.638 120.005 117.922 120.315 118.129 120.724C118.338 121.13 118.443 121.627 118.443 122.215C118.443 122.811 118.333 123.325 118.114 123.759C117.897 124.193 117.591 124.528 117.194 124.765C116.801 124.999 116.336 125.116 115.8 125.116C115.264 125.116 114.797 124.995 114.398 124.753C114.002 124.509 113.694 124.148 113.475 123.669C113.258 123.191 113.15 122.6 113.15 121.898V121.329C113.15 120.016 113.384 119.028 113.853 118.365C114.321 117.702 115.021 117.362 115.953 117.345C116.255 117.337 116.524 117.336 116.761 117.341C116.998 117.344 117.204 117.332 117.381 117.307C117.561 117.28 117.71 117.218 117.83 117.121ZM115.804 124.178C116.115 124.178 116.383 124.099 116.608 123.942C116.834 123.783 117.009 123.557 117.131 123.266C117.253 122.974 117.314 122.63 117.314 122.234C117.314 121.845 117.253 121.515 117.131 121.243C117.009 120.972 116.834 120.765 116.608 120.623C116.381 120.478 116.109 120.406 115.793 120.406C115.558 120.406 115.349 120.447 115.165 120.529C114.98 120.609 114.822 120.728 114.69 120.885C114.56 121.042 114.46 121.233 114.387 121.46C114.317 121.684 114.28 121.942 114.275 122.234C114.275 122.827 114.411 123.299 114.683 123.651C114.957 124.002 115.33 124.178 115.804 124.178ZM119.691 127.153V119.259H120.783V120.189H120.876C120.941 120.07 121.034 119.931 121.157 119.774C121.279 119.617 121.448 119.48 121.665 119.363C121.882 119.244 122.168 119.184 122.525 119.184C122.988 119.184 123.402 119.301 123.766 119.535C124.129 119.769 124.415 120.107 124.622 120.548C124.831 120.989 124.936 121.52 124.936 122.141C124.936 122.761 124.832 123.293 124.625 123.737C124.418 124.178 124.134 124.518 123.773 124.757C123.412 124.994 122.999 125.112 122.536 125.112C122.187 125.112 121.902 125.054 121.68 124.936C121.461 124.819 121.289 124.682 121.164 124.525C121.039 124.368 120.944 124.229 120.876 124.107H120.809V127.153H119.691ZM120.787 122.129C120.787 122.533 120.845 122.887 120.962 123.191C121.079 123.495 121.249 123.733 121.471 123.905C121.692 124.074 121.964 124.159 122.285 124.159C122.619 124.159 122.898 124.071 123.123 123.894C123.347 123.714 123.516 123.471 123.631 123.165C123.748 122.858 123.807 122.513 123.807 122.129C123.807 121.751 123.749 121.41 123.635 121.109C123.523 120.807 123.353 120.569 123.126 120.395C122.902 120.22 122.622 120.133 122.285 120.133C121.961 120.133 121.687 120.217 121.463 120.384C121.241 120.551 121.073 120.784 120.958 121.083C120.844 121.382 120.787 121.731 120.787 122.129ZM127.029 121.232H128.696C129.399 121.232 129.939 121.407 130.318 121.756C130.697 122.104 130.886 122.554 130.886 123.105C130.886 123.464 130.802 123.786 130.632 124.073C130.463 124.36 130.215 124.586 129.888 124.753C129.562 124.918 129.164 125 128.696 125H126.188V119.259H127.283V124.036H128.696C129.017 124.036 129.281 123.952 129.488 123.785C129.695 123.616 129.799 123.4 129.799 123.139C129.799 122.862 129.695 122.636 129.488 122.462C129.281 122.285 129.017 122.197 128.696 122.197H127.029V121.232Z" fill="#474B4E"/>
<path fill-rule="evenodd" clip-rule="evenodd" d="M61.46 10.827C78.2262 2.72848 96.7761 -0.923503 115.331 0.19822C116.878 0.291768 118.022 1.65578 117.889 3.20024L115.352 32.5634C115.218 34.1078 113.858 35.2461 112.31 35.1716C100.042 34.5811 87.806 37.0662 76.7205 42.4208C64.7915 48.1828 54.6366 57.0545 47.3249 68.1018C40.0132 79.1491 35.8153 91.9634 35.173 105.196C34.5762 117.492 37.0704 129.727 42.4075 140.788C43.0812 142.184 42.5651 143.881 41.1956 144.607L15.1586 158.417C13.7891 159.143 12.0865 158.623 11.3957 157.235C3.11246 140.594 -0.774785 122.092 0.127924 103.495C1.07604 83.9613 7.273 65.045 18.0664 48.737C28.8598 32.4291 43.8504 19.3328 61.46 10.827Z" fill="#F2F2F2"/>
<path fill-rule="evenodd" clip-rule="evenodd" d="M120.817 3.49414C120.993 1.95399 122.386 0.844658 123.921 1.06061C145.062 4.03482 164.885 13.1701 180.896 27.3554C196.907 41.5407 208.364 60.1176 213.864 80.7468C214.263 82.2447 213.33 83.7606 211.822 84.1212L183.158 90.9765C181.65 91.3371 180.141 90.4054 179.723 88.9125C175.911 75.2871 168.249 63.0262 157.629 53.6174C147.009 44.2086 133.914 38.0794 119.928 35.9364C118.396 35.7016 117.289 34.3157 117.466 32.7755L120.817 3.49414Z" fill="#5B53B8"/>
<path fill-rule="evenodd" clip-rule="evenodd" d="M45.0085 196.888C33.1377 188.299 23.1326 177.406 15.585 164.869C14.7854 163.541 15.2613 161.826 16.6096 161.061L42.243 146.516C43.5912 145.751 45.2998 146.227 46.1157 147.545C51.1708 155.712 57.7794 162.821 65.5759 168.462C73.3725 174.103 82.1912 178.157 91.53 180.404C93.0372 180.767 94.0236 182.241 93.7186 183.761L87.9199 212.657C87.6149 214.177 86.1345 215.166 84.623 214.822C70.3551 211.573 56.8793 205.477 45.0085 196.888Z" fill="#5B53B8" fill-opacity="0.2"/>
<g filter="url(#filter1_d_344_777)">
<path fill-rule="evenodd" clip-rule="evenodd" d="M216.136 80.3696C217.621 79.9263 219.189 80.7705 219.595 82.2666C224.519 100.416 224.795 119.529 220.375 137.838C215.735 157.058 206.087 174.706 192.412 188.986C178.738 203.266 161.524 213.669 142.523 219.136C124.422 224.344 105.315 224.896 86.9695 220.762C85.4572 220.421 84.5459 218.892 84.9245 217.389L93.665 182.684C94.0436 181.181 95.5684 180.275 97.0856 180.594C108.333 182.955 120.003 182.534 131.075 179.349C143.047 175.904 153.894 169.349 162.51 160.351C171.126 151.353 177.206 140.234 180.129 128.123C182.832 116.924 182.748 105.247 179.902 94.1118C179.518 92.6099 180.357 91.0474 181.842 90.604L216.136 80.3696Z" fill="#01157E"/>
</g>
<path d="M169.711 176.414C169.197 176.414 168.739 176.326 168.335 176.149C167.934 175.972 167.616 175.726 167.382 175.412C167.15 175.096 167.026 174.729 167.008 174.313H168.182C168.197 174.54 168.273 174.737 168.41 174.904C168.55 175.068 168.731 175.195 168.956 175.285C169.18 175.375 169.429 175.42 169.703 175.42C170.005 175.42 170.271 175.367 170.503 175.263C170.737 175.158 170.921 175.012 171.053 174.825C171.185 174.636 171.251 174.418 171.251 174.171C171.251 173.915 171.185 173.689 171.053 173.495C170.923 173.298 170.732 173.143 170.481 173.031C170.232 172.919 169.93 172.863 169.576 172.863H168.93V171.921H169.576C169.86 171.921 170.11 171.87 170.324 171.768C170.541 171.666 170.71 171.524 170.832 171.342C170.954 171.157 171.015 170.942 171.015 170.695C171.015 170.458 170.962 170.253 170.855 170.078C170.75 169.901 170.6 169.763 170.406 169.663C170.214 169.564 169.987 169.514 169.726 169.514C169.477 169.514 169.244 169.56 169.027 169.652C168.812 169.742 168.638 169.871 168.503 170.041C168.369 170.208 168.297 170.408 168.287 170.643H167.169C167.182 170.229 167.304 169.865 167.535 169.551C167.77 169.237 168.079 168.992 168.462 168.815C168.846 168.638 169.272 168.549 169.741 168.549C170.232 168.549 170.655 168.645 171.012 168.837C171.37 169.027 171.647 169.28 171.841 169.596C172.038 169.913 172.135 170.259 172.133 170.635C172.135 171.064 172.016 171.428 171.774 171.727C171.535 172.026 171.216 172.226 170.817 172.328V172.388C171.326 172.466 171.719 172.667 171.998 172.994C172.28 173.32 172.42 173.725 172.417 174.209C172.42 174.63 172.302 175.007 172.066 175.341C171.831 175.675 171.511 175.938 171.105 176.13C170.699 176.319 170.234 176.414 169.711 176.414ZM176.495 176.436C175.904 176.434 175.4 176.278 174.981 175.969C174.563 175.66 174.242 175.21 174.021 174.62C173.799 174.029 173.688 173.318 173.688 172.485C173.688 171.656 173.799 170.947 174.021 170.359C174.245 169.771 174.566 169.322 174.985 169.013C175.406 168.704 175.909 168.549 176.495 168.549C177.081 168.549 177.583 168.705 178.001 169.017C178.42 169.326 178.74 169.774 178.962 170.362C179.186 170.948 179.299 171.656 179.299 172.485C179.299 173.32 179.188 174.033 178.966 174.624C178.744 175.212 178.424 175.661 178.005 175.973C177.587 176.282 177.083 176.436 176.495 176.436ZM176.495 175.438C177.013 175.438 177.418 175.185 177.71 174.68C178.004 174.174 178.151 173.442 178.151 172.485C178.151 171.85 178.084 171.313 177.949 170.874C177.817 170.433 177.626 170.099 177.377 169.873C177.131 169.643 176.836 169.529 176.495 169.529C175.979 169.529 175.574 169.783 175.28 170.291C174.986 170.8 174.838 171.531 174.835 172.485C174.835 173.123 174.901 173.663 175.034 174.104C175.168 174.543 175.359 174.875 175.605 175.102C175.852 175.326 176.149 175.438 176.495 175.438ZM184.62 174.874V174.47C184.62 174.181 184.68 173.917 184.8 173.678C184.922 173.436 185.099 173.243 185.331 173.098C185.565 172.951 185.848 172.878 186.179 172.878C186.518 172.878 186.802 172.95 187.031 173.095C187.261 173.239 187.434 173.432 187.551 173.674C187.67 173.916 187.73 174.181 187.73 174.47V174.874C187.73 175.163 187.67 175.428 187.551 175.67C187.431 175.909 187.256 176.102 187.024 176.25C186.795 176.394 186.513 176.466 186.179 176.466C185.843 176.466 185.559 176.394 185.327 176.25C185.095 176.102 184.919 175.909 184.8 175.67C184.68 175.428 184.62 175.163 184.62 174.874ZM185.491 174.47V174.874C185.491 175.088 185.542 175.283 185.645 175.457C185.747 175.632 185.925 175.719 186.179 175.719C186.431 175.719 186.606 175.632 186.706 175.457C186.806 175.283 186.856 175.088 186.856 174.874V174.47C186.856 174.256 186.807 174.062 186.71 173.887C186.615 173.713 186.438 173.626 186.179 173.626C185.93 173.626 185.753 173.713 185.648 173.887C185.544 174.062 185.491 174.256 185.491 174.47ZM180.77 170.493V170.089C180.77 169.8 180.83 169.535 180.95 169.293C181.072 169.052 181.249 168.858 181.48 168.714C181.715 168.569 181.998 168.497 182.329 168.497C182.668 168.497 182.952 168.569 183.181 168.714C183.41 168.858 183.584 169.052 183.701 169.293C183.818 169.535 183.876 169.8 183.876 170.089V170.493C183.876 170.782 183.817 171.048 183.697 171.289C183.58 171.529 183.406 171.722 183.174 171.869C182.945 172.013 182.663 172.086 182.329 172.086C181.99 172.086 181.705 172.013 181.473 171.869C181.244 171.722 181.069 171.529 180.95 171.289C180.83 171.048 180.77 170.782 180.77 170.493ZM181.645 170.089V170.493C181.645 170.707 181.695 170.902 181.794 171.076C181.897 171.251 182.075 171.338 182.329 171.338C182.578 171.338 182.753 171.251 182.852 171.076C182.954 170.902 183.006 170.707 183.006 170.493V170.089C183.006 169.875 182.957 169.681 182.86 169.506C182.763 169.332 182.586 169.245 182.329 169.245C182.08 169.245 181.903 169.332 181.798 169.506C181.696 169.681 181.645 169.875 181.645 170.089ZM181.125 176.309L186.388 168.654H187.282L182.019 176.309H181.125Z" fill="white"/>
<path d="M26.5585 61.3307C26.0451 61.3307 25.5866 61.2423 25.1829 61.0653C24.7817 60.8884 24.464 60.643 24.2298 60.329C23.998 60.0125 23.8734 59.6462 23.856 59.23H25.0297C25.0446 59.4568 25.1206 59.6537 25.2577 59.8206C25.3972 59.9851 25.5791 60.1122 25.8034 60.2019C26.0277 60.2916 26.2769 60.3365 26.551 60.3365C26.8525 60.3365 27.1191 60.2841 27.3509 60.1795C27.5851 60.0748 27.7683 59.929 27.9004 59.7421C28.0324 59.5527 28.0985 59.3347 28.0985 59.088C28.0985 58.8313 28.0324 58.6058 27.9004 58.4114C27.7708 58.2146 27.5802 58.0601 27.3285 57.9479C27.0793 57.8358 26.7778 57.7797 26.4239 57.7797H25.7772V56.8378H26.4239C26.708 56.8378 26.9572 56.7867 27.1715 56.6845C27.3883 56.5824 27.5577 56.4403 27.6798 56.2584C27.8019 56.074 27.863 55.8585 27.863 55.6118C27.863 55.375 27.8094 55.1694 27.7023 54.995C27.5976 54.8181 27.4481 54.6798 27.2537 54.5801C27.0618 54.4804 26.8351 54.4306 26.5734 54.4306C26.3242 54.4306 26.0912 54.4767 25.8744 54.5689C25.6601 54.6586 25.4857 54.7882 25.3511 54.9576C25.2166 55.1246 25.1443 55.3252 25.1343 55.5594H24.0167C24.0292 55.1458 24.1513 54.7819 24.383 54.468C24.6173 54.154 24.9263 53.9085 25.31 53.7316C25.6938 53.5547 26.1199 53.4662 26.5884 53.4662C27.0793 53.4662 27.5029 53.5621 27.8593 53.754C28.2181 53.9434 28.4947 54.1963 28.6891 54.5128C28.8859 54.8293 28.9831 55.1757 28.9806 55.552C28.9831 55.9806 28.8635 56.3444 28.6218 56.6434C28.3826 56.9424 28.0636 57.143 27.6649 57.2452V57.305C28.1732 57.3823 28.567 57.5841 28.8461 57.9106C29.1276 58.237 29.2672 58.6419 29.2647 59.1254C29.2672 59.5465 29.1501 59.924 28.9133 60.258C28.6791 60.5919 28.3589 60.8548 27.9527 61.0467C27.5465 61.236 27.0818 61.3307 26.5585 61.3307ZM33.3427 61.3532C32.7522 61.3507 32.2475 61.1949 31.8289 60.8859C31.4102 60.5769 31.09 60.1271 30.8683 59.5365C30.6465 58.946 30.5356 58.2345 30.5356 57.4022C30.5356 56.5724 30.6465 55.8634 30.8683 55.2753C31.0925 54.6873 31.414 54.2387 31.8326 53.9297C32.2538 53.6207 32.7571 53.4662 33.3427 53.4662C33.9283 53.4662 34.4305 53.622 34.8491 53.9334C35.2678 54.2424 35.588 54.691 35.8097 55.2791C36.034 55.8647 36.1462 56.5724 36.1462 57.4022C36.1462 58.237 36.0353 58.9497 35.8135 59.5403C35.5917 60.1284 35.2715 60.5782 34.8528 60.8897C34.4342 61.1987 33.9308 61.3532 33.3427 61.3532ZM33.3427 60.3551C33.8611 60.3551 34.266 60.1022 34.5576 59.5964C34.8516 59.0905 34.9986 58.3591 34.9986 57.4022C34.9986 56.7668 34.9313 56.2298 34.7968 55.7912C34.6647 55.3501 34.4741 55.0162 34.2249 54.7894C33.9782 54.5602 33.6841 54.4455 33.3427 54.4455C32.8269 54.4455 32.422 54.6997 32.1279 55.2081C31.8339 55.7164 31.6856 56.4478 31.6831 57.4022C31.6831 58.0401 31.7492 58.5796 31.8812 59.0207C32.0158 59.4593 32.2064 59.792 32.4531 60.0187C32.6998 60.243 32.9964 60.3551 33.3427 60.3551ZM41.468 59.7907V59.387C41.468 59.098 41.5278 58.8338 41.6474 58.5946C41.7695 58.3529 41.9464 58.1598 42.1782 58.0152C42.4124 57.8682 42.6953 57.7947 43.0267 57.7947C43.3656 57.7947 43.6497 57.867 43.8789 58.0115C44.1082 58.156 44.2814 58.3491 44.3985 58.5909C44.5181 58.8326 44.5779 59.098 44.5779 59.387V59.7907C44.5779 60.0798 44.5181 60.3452 44.3985 60.5869C44.2789 60.8261 44.1032 61.0192 43.8714 61.1663C43.6422 61.3108 43.3606 61.3831 43.0267 61.3831C42.6903 61.3831 42.4062 61.3108 42.1744 61.1663C41.9427 61.0192 41.767 60.8261 41.6474 60.5869C41.5278 60.3452 41.468 60.0798 41.468 59.7907ZM42.3389 59.387V59.7907C42.3389 60.005 42.39 60.1994 42.4922 60.3738C42.5943 60.5483 42.7725 60.6355 43.0267 60.6355C43.2784 60.6355 43.4541 60.5483 43.5537 60.3738C43.6534 60.1994 43.7032 60.005 43.7032 59.7907V59.387C43.7032 59.1727 43.6547 58.9784 43.5575 58.8039C43.4628 58.6295 43.2858 58.5423 43.0267 58.5423C42.7775 58.5423 42.6006 58.6295 42.4959 58.8039C42.3912 58.9784 42.3389 59.1727 42.3389 59.387ZM37.618 55.4099V55.0062C37.618 54.7172 37.6778 54.4518 37.7974 54.21C37.9195 53.9683 38.0964 53.7752 38.3282 53.6307C38.5624 53.4861 38.8452 53.4139 39.1767 53.4139C39.5156 53.4139 39.7996 53.4861 40.0289 53.6307C40.2582 53.7752 40.4313 53.9683 40.5485 54.21C40.6656 54.4518 40.7241 54.7172 40.7241 55.0062V55.4099C40.7241 55.699 40.6643 55.9644 40.5447 56.2061C40.4276 56.4453 40.2532 56.6384 40.0214 56.7855C39.7922 56.93 39.5106 57.0023 39.1767 57.0023C38.8378 57.0023 38.5524 56.93 38.3207 56.7855C38.0914 56.6384 37.917 56.4453 37.7974 56.2061C37.6778 55.9644 37.618 55.699 37.618 55.4099ZM38.4926 55.0062V55.4099C38.4926 55.6242 38.5425 55.8186 38.6421 55.993C38.7443 56.1675 38.9225 56.2547 39.1767 56.2547C39.4258 56.2547 39.6003 56.1675 39.7 55.993C39.8021 55.8186 39.8532 55.6242 39.8532 55.4099V55.0062C39.8532 54.7919 39.8046 54.5975 39.7074 54.4231C39.6103 54.2487 39.4333 54.1615 39.1767 54.1615C38.9275 54.1615 38.7505 54.2487 38.6459 54.4231C38.5437 54.5975 38.4926 54.7919 38.4926 55.0062ZM37.9731 61.2261L43.236 53.5709H44.1294L38.8664 61.2261H37.9731Z" fill="#292D30"/>
<path d="M51.3581 177.777V185.432H50.1994V178.935H50.1545L48.3229 180.131V179.025L50.233 177.777H51.3581ZM55.9557 185.536C55.4872 185.536 55.0661 185.447 54.6923 185.267C54.321 185.085 54.0245 184.836 53.8027 184.52C53.5809 184.203 53.4625 183.842 53.4476 183.436H54.569C54.5964 183.765 54.7422 184.035 55.0063 184.247C55.2704 184.459 55.5869 184.565 55.9557 184.565C56.2498 184.565 56.5102 184.497 56.7369 184.363C56.9662 184.226 57.1456 184.038 57.2752 183.798C57.4073 183.559 57.4733 183.286 57.4733 182.98C57.4733 182.668 57.406 182.39 57.2715 182.146C57.1369 181.902 56.9512 181.71 56.7145 181.571C56.4803 181.431 56.2111 181.36 55.9071 181.357C55.6754 181.357 55.4424 181.397 55.2081 181.477C54.9739 181.557 54.7845 181.661 54.64 181.791L53.5822 181.634L54.012 177.777H58.2209V178.767H54.9727L54.7297 180.909H54.7745C54.9241 180.764 55.1222 180.644 55.3689 180.546C55.6181 180.449 55.8847 180.401 56.1688 180.401C56.6348 180.401 57.0497 180.511 57.4135 180.733C57.7798 180.955 58.0676 181.258 58.277 181.642C58.4888 182.023 58.5934 182.461 58.5909 182.957C58.5934 183.453 58.4813 183.895 58.2545 184.284C58.0303 184.673 57.7188 184.979 57.3201 185.204C56.9238 185.426 56.4691 185.536 55.9557 185.536ZM63.952 183.996V183.593C63.952 183.304 64.0118 183.04 64.1314 182.8C64.2535 182.559 64.4305 182.365 64.6622 182.221C64.8965 182.074 65.1793 182 65.5107 182C65.8496 182 66.1337 182.073 66.363 182.217C66.5922 182.362 66.7654 182.555 66.8825 182.797C67.0021 183.038 67.0619 183.304 67.0619 183.593V183.996C67.0619 184.285 67.0021 184.551 66.8825 184.793C66.7629 185.032 66.5872 185.225 66.3555 185.372C66.1262 185.516 65.8446 185.589 65.5107 185.589C65.1743 185.589 64.8902 185.516 64.6585 185.372C64.4267 185.225 64.251 185.032 64.1314 184.793C64.0118 184.551 63.952 184.285 63.952 183.996ZM64.8229 183.593V183.996C64.8229 184.211 64.874 184.405 64.9762 184.58C65.0784 184.754 65.2565 184.841 65.5107 184.841C65.7624 184.841 65.9381 184.754 66.0378 184.58C66.1374 184.405 66.1873 184.211 66.1873 183.996V183.593C66.1873 183.378 66.1387 183.184 66.0415 183.01C65.9468 182.835 65.7699 182.748 65.5107 182.748C65.2615 182.748 65.0846 182.835 64.9799 183.01C64.8753 183.184 64.8229 183.378 64.8229 183.593ZM60.102 179.616V179.212C60.102 178.923 60.1618 178.657 60.2814 178.416C60.4035 178.174 60.5804 177.981 60.8122 177.836C61.0464 177.692 61.3293 177.62 61.6607 177.62C61.9996 177.62 62.2837 177.692 62.5129 177.836C62.7422 177.981 62.9154 178.174 63.0325 178.416C63.1496 178.657 63.2082 178.923 63.2082 179.212V179.616C63.2082 179.905 63.1484 180.17 63.0287 180.412C62.9116 180.651 62.7372 180.844 62.5054 180.991C62.2762 181.136 61.9946 181.208 61.6607 181.208C61.3218 181.208 61.0365 181.136 60.8047 180.991C60.5754 180.844 60.401 180.651 60.2814 180.412C60.1618 180.17 60.102 179.905 60.102 179.616ZM60.9766 179.212V179.616C60.9766 179.83 61.0265 180.024 61.1262 180.199C61.2283 180.373 61.4065 180.46 61.6607 180.46C61.9099 180.46 62.0843 180.373 62.184 180.199C62.2862 180.024 62.3372 179.83 62.3372 179.616V179.212C62.3372 178.998 62.2886 178.803 62.1915 178.629C62.0943 178.454 61.9173 178.367 61.6607 178.367C61.4115 178.367 61.2346 178.454 61.1299 178.629C61.0277 178.803 60.9766 178.998 60.9766 179.212ZM60.4571 185.432L65.72 177.777H66.6134L61.3504 185.432H60.4571Z" fill="#292D30"/>
<path d="M161.432 45.0863V44.249L164.022 41.5652C164.299 41.2737 164.527 41.0182 164.706 40.7989C164.888 40.5772 165.024 40.3666 165.114 40.1672C165.203 39.9679 165.248 39.7561 165.248 39.5318C165.248 39.2776 165.188 39.0583 165.069 38.8739C164.949 38.687 164.786 38.5437 164.579 38.4441C164.372 38.3419 164.139 38.2908 163.88 38.2908C163.606 38.2908 163.367 38.3469 163.162 38.459C162.958 38.5712 162.801 38.7294 162.691 38.9337C162.582 39.1381 162.527 39.3773 162.527 39.6514H161.424C161.424 39.1854 161.531 38.778 161.746 38.4291C161.96 38.0802 162.254 37.8099 162.628 37.618C163.002 37.4236 163.427 37.3264 163.903 37.3264C164.383 37.3264 164.807 37.4224 165.173 37.6143C165.542 37.8036 165.83 38.0628 166.037 38.3917C166.244 38.7182 166.347 39.087 166.347 39.4982C166.347 39.7822 166.294 40.0601 166.186 40.3317C166.082 40.6033 165.899 40.9061 165.637 41.24C165.375 41.5714 165.011 41.9739 164.545 42.4474L163.024 44.0397V44.0958H166.47V45.0863H161.432ZM170.414 45.191C169.945 45.191 169.524 45.1013 169.151 44.9218C168.779 44.7399 168.483 44.4907 168.261 44.1743C168.039 43.8578 167.921 43.4965 167.906 43.0903H169.027C169.055 43.4192 169.2 43.6896 169.465 43.9014C169.729 44.1132 170.045 44.2191 170.414 44.2191C170.708 44.2191 170.968 44.1518 171.195 44.0173C171.424 43.8802 171.604 43.6921 171.733 43.4528C171.866 43.2136 171.932 42.9408 171.932 42.6342C171.932 42.3228 171.864 42.0449 171.73 41.8007C171.595 41.5565 171.409 41.3646 171.173 41.2251C170.939 41.0855 170.669 41.0145 170.365 41.012C170.134 41.012 169.901 41.0519 169.666 41.1316C169.432 41.2114 169.243 41.316 169.098 41.4456L168.04 41.2886L168.47 37.4311H172.679V38.4216H169.431L169.188 40.5635H169.233C169.382 40.4189 169.58 40.2981 169.827 40.2009C170.076 40.1037 170.343 40.0551 170.627 40.0551C171.093 40.0551 171.508 40.166 171.872 40.3878C172.238 40.6096 172.526 40.9123 172.735 41.2961C172.947 41.6773 173.052 42.1159 173.049 42.6118C173.052 43.1077 172.94 43.55 172.713 43.9388C172.488 44.3275 172.177 44.634 171.778 44.8583C171.382 45.0801 170.927 45.191 170.414 45.191ZM178.41 43.651V43.2473C178.41 42.9582 178.47 42.6941 178.59 42.4548C178.712 42.2131 178.889 42.02 179.12 41.8755C179.355 41.7284 179.638 41.6549 179.969 41.6549C180.308 41.6549 180.592 41.7272 180.821 41.8717C181.05 42.0162 181.224 42.2094 181.341 42.4511C181.46 42.6928 181.52 42.9582 181.52 43.2473V43.651C181.52 43.94 181.46 44.2054 181.341 44.4471C181.221 44.6863 181.045 44.8795 180.814 45.0265C180.584 45.171 180.303 45.2433 179.969 45.2433C179.633 45.2433 179.348 45.171 179.117 45.0265C178.885 44.8795 178.709 44.6863 178.59 44.4471C178.47 44.2054 178.41 43.94 178.41 43.651ZM179.281 43.2473V43.651C179.281 43.8653 179.332 44.0596 179.434 44.2341C179.537 44.4085 179.715 44.4957 179.969 44.4957C180.221 44.4957 180.396 44.4085 180.496 44.2341C180.596 44.0596 180.646 43.8653 180.646 43.651V43.2473C180.646 43.033 180.597 42.8386 180.5 42.6641C180.405 42.4897 180.228 42.4025 179.969 42.4025C179.72 42.4025 179.543 42.4897 179.438 42.6641C179.334 42.8386 179.281 43.033 179.281 43.2473ZM174.56 39.2701V38.8665C174.56 38.5774 174.62 38.312 174.74 38.0703C174.862 37.8286 175.039 37.6354 175.27 37.4909C175.505 37.3464 175.787 37.2741 176.119 37.2741C176.458 37.2741 176.742 37.3464 176.971 37.4909C177.2 37.6354 177.374 37.8286 177.491 38.0703C177.608 38.312 177.666 38.5774 177.666 38.8665V39.2701C177.666 39.5592 177.607 39.8246 177.487 40.0663C177.37 40.3055 177.195 40.4987 176.964 40.6457C176.734 40.7902 176.453 40.8625 176.119 40.8625C175.78 40.8625 175.495 40.7902 175.263 40.6457C175.034 40.4987 174.859 40.3055 174.74 40.0663C174.62 39.8246 174.56 39.5592 174.56 39.2701ZM175.435 38.8665V39.2701C175.435 39.4844 175.485 39.6788 175.584 39.8533C175.687 40.0277 175.865 40.1149 176.119 40.1149C176.368 40.1149 176.543 40.0277 176.642 39.8533C176.744 39.6788 176.795 39.4844 176.795 39.2701V38.8665C176.795 38.6521 176.747 38.4578 176.65 38.2833C176.553 38.1089 176.376 38.0217 176.119 38.0217C175.87 38.0217 175.693 38.1089 175.588 38.2833C175.486 38.4578 175.435 38.6521 175.435 38.8665ZM174.915 45.0863L180.178 37.4311H181.072L175.809 45.0863H174.915Z" fill="white"/>
<defs>
<filter id="filter0_d_344_777" x="36.9655" y="39.7724" width="143.152" height="143.152" filterUnits="userSpaceOnUse" color-interpolation-filters="sRGB">
<feFlood flood-opacity="0" result="BackgroundImageFix"/>
<feColorMatrix in="SourceAlpha" type="matrix" values="0 0 0 0 0 0 0 0 0 0 0 0 0 0 0 0 0 0 127 0" result="hardAlpha"/>
<feOffset dy="2.80691"/>
<feGaussianBlur stdDeviation="7.01727"/>
<feComposite in2="hardAlpha" operator="out"/>
<feColorMatrix type="matrix" values="0 0 0 0 0 0 0 0 0 0 0 0 0 0 0 0 0 0 0.16 0"/>
<feBlend mode="normal" in2="BackgroundImageFix" result="effect1_dropShadow_344_777"/>
<feBlend mode="normal" in="SourceGraphic" in2="effect1_dropShadow_344_777" result="shape"/>
</filter>
<filter id="filter1_d_344_777" x="69.4009" y="62.7084" width="159.713" height="164.3" filterUnits="userSpaceOnUse" color-interpolation-filters="sRGB">
<feFlood flood-opacity="0" result="BackgroundImageFix"/>
<feColorMatrix in="SourceAlpha" type="matrix" values="0 0 0 0 0 0 0 0 0 0 0 0 0 0 0 0 0 0 127 0" result="hardAlpha"/>
<feOffset dx="-4.91209" dy="-7.01727"/>
<feGaussianBlur stdDeviation="5.26295"/>
<feComposite in2="hardAlpha" operator="out"/>
<feColorMatrix type="matrix" values="0 0 0 0 0 0 0 0 0 0 0 0 0 0 0 0 0 0 0.12 0"/>
<feBlend mode="normal" in2="BackgroundImageFix" result="effect1_dropShadow_344_777"/>
<feBlend mode="normal" in="SourceGraphic" in2="effect1_dropShadow_344_777" result="shape"/>
</filter>
</defs>
</svg>
