<svg width="17" height="17" viewBox="0 0 17 17" fill="none" xmlns="http://www.w3.org/2000/svg">
    <path d="M8.49984 1.4165C4.59692 1.4165 1.4165 4.59692 1.4165 8.49984C1.4165 12.4028 4.59692 15.5832 8.49984 15.5832C12.4028 15.5832 15.5832 12.4028 15.5832 8.49984C15.5832 4.59692 12.4028 1.4165 8.49984 1.4165ZM11.3757 7.98275L8.87525 10.4832C8.769 10.5894 8.63442 10.639 8.49984 10.639C8.36525 10.639 8.23067 10.5894 8.12442 10.4832L5.624 7.98275C5.41859 7.77734 5.41859 7.43734 5.624 7.23192C5.82942 7.0265 6.16942 7.0265 6.37484 7.23192L8.49984 9.35692L10.6248 7.23192C10.8303 7.0265 11.1703 7.0265 11.3757 7.23192C11.5811 7.43734 11.5811 7.77025 11.3757 7.98275Z" fill="#8A8FA8"/>
</svg>
