<svg width="20" height="20" viewBox="0 0 20 20" fill="none" xmlns="http://www.w3.org/2000/svg">
    <path fill-rule="evenodd" clip-rule="evenodd" d="M7.62163 0.00914718C6.54687 0.0179071 5.87417 0.0384726 5.26325 0.0812376C3.47407 0.206487 2.46431 0.50619 1.65583 1.15196C1.51606 1.2636 1.25569 1.52693 1.13251 1.68123C0.470053 2.51098 0.163174 3.62597 0.058709 5.58258C0.0137838 6.42405 0.00536518 6.97373 0.0011317 9.33891C-0.0049189 12.7221 0.0115511 13.6874 0.0931664 14.7341C0.194451 16.0332 0.414486 16.9351 0.797239 17.6202C1.0687 18.1061 1.47225 18.544 1.92866 18.8479C2.76829 19.4069 3.88276 19.6628 5.86735 19.752C6.82785 19.7952 9.49907 19.8121 11.9953 19.7908C13.2496 19.7802 13.747 19.7669 14.3826 19.7273C16.4093 19.601 17.5191 19.2451 18.343 18.457C19.146 17.689 19.538 16.6226 19.6885 14.7969C19.7452 14.1094 19.7693 13.4197 19.7777 12.252C19.7821 11.6442 19.7867 11.4104 19.7944 11.4146C19.8002 11.4179 19.7995 11.4147 19.7929 11.4075C19.7863 11.4003 19.7809 11.3877 19.781 11.3795C19.7811 11.3663 19.7822 11.3662 19.7905 11.379C19.7965 11.3884 19.7999 10.8651 19.8 9.89244C19.8001 9.06684 19.7965 8.39136 19.7919 8.39136C19.7874 8.39136 19.781 8.01174 19.7777 7.54776C19.7666 5.99614 19.7209 5.10169 19.6109 4.28213C19.4161 2.83104 18.9958 1.90842 18.2207 1.23022C17.3551 0.472823 16.1707 0.14715 13.9187 0.0472712C12.9572 0.0046222 10.2144 -0.0119791 7.62163 0.00914718ZM3.33534 6.15062C3.35415 6.60867 3.37316 6.90061 3.40318 7.19243C3.61017 9.20463 4.23226 10.8395 5.2483 12.0413C5.35419 12.1666 5.61559 12.4386 5.75619 12.5699C6.72268 13.4722 7.98966 14.0309 9.46774 14.2067C9.7996 14.2462 10.3121 14.2735 10.6179 14.2681L10.7871 14.2652L10.7895 12.7929L10.792 11.3207L10.8137 11.3252C10.8256 11.3276 10.8615 11.3324 10.8934 11.3358C10.9775 11.3448 11.0998 11.3662 11.2269 11.3942C12.5046 11.6759 13.5619 12.6296 14.0915 13.978C14.1201 14.0508 14.1552 14.1463 14.1696 14.1902L14.1957 14.27H15.3693C16.0148 14.27 16.5429 14.2669 16.5429 14.2631C16.5429 14.2593 16.5212 14.1838 16.4946 14.0953C16.2181 13.1727 15.7344 12.3132 15.0886 11.5966C14.5652 11.0157 13.9139 10.5095 13.2833 10.1934L13.1574 10.1303L13.2341 10.0842C13.673 9.82026 14.1622 9.40646 14.5667 8.95699C15.3096 8.1315 15.8221 7.14829 16.0207 6.16754C16.032 6.11171 16.0433 6.05623 16.0458 6.04427L16.0503 6.02251H14.9827H13.9152L13.8749 6.15041C13.4517 7.49317 12.4349 8.70251 11.3736 9.12548C11.1929 9.19751 10.9131 9.27122 10.8204 9.27122H10.7919V7.64687V6.02251H9.72388H8.65584V8.8748C8.65584 10.4436 8.65392 11.7271 8.65157 11.7271C8.63206 11.7271 8.39763 11.6491 8.31348 11.6147C7.33895 11.2155 6.53979 10.2675 6.0812 8.96666C5.80815 8.19217 5.6516 7.30779 5.60923 6.30049L5.59754 6.02251H4.46381H3.33008L3.33534 6.15062ZM0.000281134 9.89969C0.000281134 10.7266 0.00142166 11.0649 0.00281349 10.6514C0.00420532 10.238 0.00420532 9.56141 0.00281349 9.14795C0.00142166 8.73448 0.000281134 9.07277 0.000281134 9.89969ZM19.7816 8.41634C19.782 8.4276 19.7843 8.42989 19.7874 8.42219C19.7902 8.41521 19.7899 8.40686 19.7867 8.40365C19.7834 8.40044 19.7812 8.40615 19.7816 8.41634Z" fill="white"/>
</svg>
