<svg width="20" height="20" viewBox="0 0 20 20" fill="none" xmlns="http://www.w3.org/2000/svg">
    <path d="M12.51 0.486C11.666 0.204 10.788 0 10 0C9.212 0 8.334 0.204 7.49 0.486C6.633 0.773 5.747 1.163 4.926 1.585C4.15415 1.97722 3.40858 2.41915 2.694 2.908C2.085 3.328 1.522 3.783 1.203 4.2C0.618 4.963 0.334 5.942 0.183 6.91C0.0300001 7.892 0 8.97 0 10C0 11.03 0.0300001 12.108 0.183 13.09C0.334 14.058 0.618 15.037 1.203 15.8C1.523 16.217 2.085 16.672 2.694 17.092C3.329 17.532 4.104 17.994 4.926 18.415C5.747 18.837 6.633 19.227 7.49 19.514C8.334 19.796 9.213 20 10 20C10.788 20 11.666 19.796 12.51 19.514C13.3904 19.211 14.2474 18.8437 15.074 18.415C15.8458 18.0228 16.5914 17.5808 17.306 17.092C17.915 16.672 18.478 16.217 18.797 15.8C19.382 15.037 19.666 14.058 19.817 13.09C19.97 12.108 20 11.03 20 10C20 8.97 19.97 7.892 19.817 6.91C19.666 5.942 19.382 4.963 18.797 4.2C18.477 3.783 17.915 3.328 17.306 2.908C16.5914 2.41915 15.8458 1.97722 15.074 1.585C14.2474 1.15633 13.3904 0.789012 12.51 0.486ZM1 8C1 7.73478 1.10536 7.48043 1.29289 7.29289C1.48043 7.10536 1.73478 7 2 7H7C7.26522 7 7.51957 7.10536 7.70711 7.29289C7.89464 7.48043 8 7.73478 8 8C8 8.26522 7.89464 8.51957 7.70711 8.70711C7.51957 8.89464 7.26522 9 7 9H2C1.73478 9 1.48043 8.89464 1.29289 8.70711C1.10536 8.51957 1 8.26522 1 8ZM1 12C1 11.7348 1.10536 11.4804 1.29289 11.2929C1.48043 11.1054 1.73478 11 2 11H13C13.2652 11 13.5196 11.1054 13.7071 11.2929C13.8946 11.4804 14 11.7348 14 12C14 12.2652 13.8946 12.5196 13.7071 12.7071C13.5196 12.8946 13.2652 13 13 13H2C1.73478 13 1.48043 12.8946 1.29289 12.7071C1.10536 12.5196 1 12.2652 1 12Z" fill="white"/>
</svg>
