<svg width="42" height="42" viewBox="0 0 42 42" fill="none" xmlns="http://www.w3.org/2000/svg">
    <path d="M34.125 0H7.875C3.52576 0 0 3.52576 0 7.875V34.125C0 38.4742 3.52576 42 7.875 42H34.125C38.4742 42 42 38.4742 42 34.125V7.875C42 3.52576 38.4742 0 34.125 0Z" fill="white"/>
    <path d="M23.5102 31.2572C23.1854 31.2572 22.8802 31.0406 22.7916 30.7059C22.6932 30.3122 22.9196 29.9086 23.3133 29.8003C27.3099 28.747 30.0957 25.1245 30.0957 20.9902C30.0957 15.9698 26.0105 11.8847 20.9902 11.8847C16.7279 11.8847 13.9322 14.3752 12.623 15.8813H15.5171C15.9207 15.8813 16.2554 16.2159 16.2554 16.6195C16.2554 17.0231 15.9404 17.3677 15.5269 17.3677H11.1661C11.0972 17.3677 11.0283 17.3578 10.9594 17.3381C10.8708 17.3086 10.7921 17.2692 10.7232 17.22C10.6346 17.1609 10.5657 17.0822 10.5165 16.9936C10.4672 16.8952 10.4279 16.7967 10.418 16.6884C10.418 16.6589 10.418 16.6392 10.418 16.6097V12.1406C10.418 11.737 10.7527 11.4023 11.1563 11.4023C11.5599 11.4023 11.8946 11.737 11.8946 12.1406V14.4933C13.4991 12.7706 16.5211 10.418 21 10.418C26.8374 10.418 31.5821 15.1627 31.5821 21C31.5821 25.8038 28.3435 30.0169 23.6972 31.2375C23.6382 31.2473 23.5693 31.2572 23.5102 31.2572Z" fill="#01157E"/>
    <path d="M20.3011 31.5623C20.2815 31.5623 20.2519 31.5623 20.2322 31.5525C19.179 31.4836 18.1454 31.2473 17.161 30.8634C16.8755 30.7552 16.6885 30.4697 16.6885 30.1645C16.6885 30.0759 16.7082 29.9873 16.7377 29.9086C16.8854 29.5345 17.3185 29.3377 17.6926 29.4853C18.5391 29.82 19.4349 30.0169 20.3405 30.0858H20.3504C20.7441 30.1055 21.0394 30.4402 21.0394 30.8339C21.0394 30.8437 21.0394 30.8634 21.0394 30.8733C21.0099 31.2572 20.685 31.5623 20.3011 31.5623ZM14.8772 29.4459C14.7099 29.4459 14.5524 29.3967 14.4146 29.2884C13.5877 28.6289 12.8691 27.8512 12.2686 26.9752C12.18 26.8472 12.1308 26.7094 12.1308 26.5617C12.1308 26.3156 12.249 26.0892 12.4557 25.9514C12.7805 25.725 13.2629 25.8136 13.4794 26.1384C14.0011 26.8964 14.6213 27.5658 15.3399 28.1269C15.5072 28.2647 15.6155 28.4714 15.6155 28.6978C15.6155 28.8652 15.5663 29.0325 15.458 29.1703C15.3202 29.3475 15.1036 29.4459 14.8772 29.4459ZM11.5894 24.6422C11.2646 24.6422 10.9791 24.4355 10.8905 24.1303C10.5755 23.1164 10.418 22.0631 10.418 21C10.418 20.5964 10.7527 20.2617 11.1563 20.2617C11.5599 20.2617 11.8946 20.5964 11.8946 21C11.8946 21.9155 12.0324 22.8211 12.2982 23.6873C12.3179 23.7562 12.3277 23.835 12.3277 23.9137C12.3277 24.2386 12.121 24.5142 11.8158 24.6127C11.7371 24.6323 11.6682 24.6422 11.5894 24.6422Z" fill="#01157E"/>
    <path d="M20.9999 24.9375C23.1746 24.9375 24.9375 23.1746 24.9375 21C24.9375 18.8254 23.1746 17.0625 20.9999 17.0625C18.8253 17.0625 17.0625 18.8254 17.0625 21C17.0625 23.1746 18.8253 24.9375 20.9999 24.9375Z" fill="#01157E"/>
</svg>
