<svg width="42" height="42" viewBox="0 0 42 42" fill="none" xmlns="http://www.w3.org/2000/svg">
    <path d="M34.125 0H7.875C3.52576 0 0 3.52576 0 7.875V34.125C0 38.4743 3.52576 42 7.875 42H34.125C38.4742 42 42 38.4743 42 34.125V7.875C42 3.52576 38.4742 0 34.125 0Z" fill="white"/>
    <path d="M20.9999 31.5829C20.5964 31.5829 20.2617 31.248 20.2617 30.844V28.8759C20.2617 28.4719 20.5964 28.137 20.9999 28.137C21.4035 28.137 21.7382 28.4719 21.7382 28.8759V30.844C21.7382 31.248 21.4035 31.5829 20.9999 31.5829Z" fill="#01157E"/>
    <path d="M20.9999 27.645C20.5964 27.645 20.2617 27.31 20.2617 26.907V24.938C20.2617 24.534 20.5964 24.2 20.9999 24.2C21.4035 24.2 21.7382 24.534 21.7382 24.938V26.907C21.7382 27.31 21.4035 27.645 20.9999 27.645Z" fill="#01157E"/>
    <path d="M20.9999 23.7079C20.5964 23.7079 20.2617 23.373 20.2617 22.969V20.016C20.2617 15.813 23.6873 12.387 27.8906 12.387H30.8437C31.2473 12.387 31.582 12.722 31.582 13.126C31.582 13.529 31.2473 13.864 30.8437 13.864H27.8906C24.4945 13.864 21.7382 16.62 21.7382 20.016V22.969C21.7382 23.373 21.4035 23.7079 20.9999 23.7079Z" fill="#01157E"/>
    <path d="M21 23.7079C20.5965 23.7079 20.2618 23.373 20.2618 22.969V20.016C20.2618 16.62 17.5055 13.864 14.1094 13.864H11.1563C10.7527 13.864 10.418 13.529 10.418 13.126C10.418 12.722 10.7527 12.387 11.1563 12.387H14.1094C18.3127 12.387 21.7383 15.813 21.7383 20.016V22.969C21.7383 23.373 21.4036 23.7079 21 23.7079Z" fill="#01157E"/>
    <path d="M13.1249 15.833C12.9379 15.833 12.7509 15.764 12.6032 15.616L10.6345 13.647C10.349 13.362 10.349 12.889 10.6345 12.604L12.6032 10.635C12.8887 10.35 13.3612 10.35 13.6466 10.635C13.9321 10.92 13.9321 11.393 13.6466 11.678L12.1996 13.125L13.6466 14.573C13.9321 14.858 13.9321 15.33 13.6466 15.616C13.499 15.764 13.312 15.833 13.1249 15.833Z" fill="#01157E"/>
    <path d="M28.875 15.833C28.688 15.833 28.501 15.764 28.3533 15.616C28.0678 15.33 28.0678 14.858 28.3533 14.573L29.8003 13.125L28.3533 11.678C28.0678 11.393 28.0678 10.92 28.3533 10.635C28.6388 10.35 29.1113 10.35 29.3968 10.635L31.3655 12.604C31.651 12.889 31.651 13.362 31.3655 13.647L29.3968 15.616C29.2491 15.764 29.0621 15.833 28.875 15.833Z" fill="#01157E"/>
</svg>
