<svg width="42" height="42" viewBox="0 0 42 42" fill="none" xmlns="http://www.w3.org/2000/svg">
    <path d="M34.125 0H7.875C3.52576 0 0 3.52576 0 7.875V34.125C0 38.4742 3.52576 42 7.875 42H34.125C38.4742 42 42 38.4742 42 34.125V7.875C42 3.52576 38.4742 0 34.125 0Z" fill="white"/>
    <path d="M22.8458 22.8496H14.8727C14.2697 22.8496 13.7808 22.361 13.7808 21.7582C13.7808 21.1555 14.2697 20.6667 14.8727 20.6667H22.8117C23.5897 20.6667 24.2328 20.5418 24.7418 20.2918C25.2498 20.0363 25.6277 19.6864 25.8737 19.2421C26.1187 18.7922 26.2418 18.2757 26.2418 17.6925C26.2418 17.1148 26.1187 16.5984 25.8737 16.143C25.6277 15.6875 25.2528 15.3292 24.7498 15.0681C24.2468 14.8015 23.6118 14.6682 22.8458 14.6682H20.4197C19.6947 14.6682 19.1068 15.2558 19.1068 15.9807V28.2188C19.1068 28.9437 18.5107 29.5313 17.7857 29.5313C17.0617 29.5313 16.4658 28.9437 16.4658 28.2188V13.7812C16.4658 13.0565 17.0527 12.4688 17.7777 12.4688H22.8458C24.1778 12.4688 25.2898 12.702 26.1818 13.1686C27.0798 13.6351 27.7518 14.2628 28.1978 15.0515C28.6488 15.8401 28.8748 16.7177 28.8748 17.6841C28.8748 18.6617 28.6467 19.542 28.1887 20.3252C27.7377 21.1028 27.0628 21.7193 26.1648 22.1747C25.2728 22.6246 24.1668 22.8496 22.8458 22.8496ZM21.8788 24.2825C22.4838 24.2825 22.9748 24.773 22.9748 25.3781C22.9748 25.9832 22.4838 26.4737 21.8788 26.4737H14.8767C14.2717 26.4737 13.7808 25.9832 13.7808 25.3781C13.7808 24.773 14.2717 24.2825 14.8767 24.2825H21.8788Z" fill="#01157E" fill-opacity="0.97"/>
</svg>
