<svg width="28" height="28" viewBox="0 0 28 28" fill="none" xmlns="http://www.w3.org/2000/svg">
    <circle cx="14" cy="14" r="14" fill="#E0320F"/>
    <path d="M19.43 9.18504H19.13L16.595 6.65004C16.3925 6.44754 16.0625 6.44754 15.8525 6.65004C15.65 6.85254 15.65 7.18254 15.8525 7.39254L17.645 9.18504H10.355L12.1475 7.39254C12.35 7.19004 12.35 6.86004 12.1475 6.65004C11.945 6.44754 11.615 6.44754 11.405 6.65004L8.8775 9.18504H8.5775C7.9025 9.18504 6.5 9.18504 6.5 11.105C6.5 11.8325 6.65 12.3125 6.965 12.6275C7.145 12.815 7.3625 12.9125 7.595 12.965C7.8125 13.0175 8.045 13.025 8.27 13.025H19.73C19.9625 13.025 20.18 13.01 20.39 12.965C21.02 12.815 21.5 12.365 21.5 11.105C21.5 9.18504 20.0975 9.18504 19.43 9.18504Z" fill="#00A01A"/>
    <path d="M19.7377 13.025H8.27021C8.05271 13.025 7.81271 13.0175 7.59521 12.9575L8.54021 18.725C8.75021 20.015 9.31271 21.5 11.8102 21.5H16.0177C18.5452 21.5 18.9952 20.2325 19.2652 18.815L20.3977 12.9575C20.1877 13.01 19.9627 13.025 19.7377 13.025ZM14.0002 18.875C12.2452 18.875 10.8127 17.4425 10.8127 15.6875C10.8127 15.38 11.0677 15.125 11.3752 15.125C11.6827 15.125 11.9377 15.38 11.9377 15.6875C11.9377 16.8275 12.8602 17.75 14.0002 17.75C15.1402 17.75 16.0627 16.8275 16.0627 15.6875C16.0627 15.38 16.3177 15.125 16.6252 15.125C16.9327 15.125 17.1877 15.38 17.1877 15.6875C17.1877 17.4425 15.7552 18.875 14.0002 18.875Z" fill="white"/>
</svg>
