<svg width="140" height="33" viewBox="0 0 140 33" fill="none" xmlns="http://www.w3.org/2000/svg">
<path d="M83.0222 5.75699H80.2509C80.2003 5.39997 80.0969 5.08285 79.9409 4.80564C79.7848 4.52422 79.5844 4.28481 79.3398 4.0874C79.0951 3.88999 78.8125 3.73878 78.492 3.63377C78.1756 3.52877 77.8318 3.47627 77.4606 3.47627C76.79 3.47627 76.2058 3.64217 75.708 3.97399C75.2103 4.30161 74.8244 4.78044 74.5502 5.41047C74.276 6.0363 74.1389 6.79655 74.1389 7.6912C74.1389 8.61104 74.276 9.38389 74.5502 10.0097C74.8286 10.6356 75.2166 11.1081 75.7144 11.4273C76.2121 11.7465 76.7879 11.9061 77.4417 11.9061C77.8086 11.9061 78.1482 11.8578 78.4603 11.7612C78.7767 11.6646 79.0572 11.5239 79.3018 11.3391C79.5465 11.1501 79.7489 10.9212 79.9092 10.6524C80.0737 10.3835 80.1876 10.0769 80.2509 9.73251L83.0222 9.74511C82.9505 10.3373 82.7712 10.9086 82.4844 11.4588C82.2017 12.0048 81.82 12.4942 81.3392 12.9268C80.8625 13.3552 80.2931 13.6954 79.6308 13.9474C78.9728 14.1953 78.2283 14.3192 77.3974 14.3192C76.2416 14.3192 75.2082 14.0587 74.2971 13.5379C73.3902 13.0171 72.6731 12.2631 72.1459 11.2761C71.6228 10.289 71.3613 9.09407 71.3613 7.6912C71.3613 6.28412 71.6271 5.08705 72.1585 4.1C72.69 3.11294 73.4113 2.3611 74.3224 1.84448C75.2335 1.32365 76.2585 1.06323 77.3974 1.06323C78.1482 1.06323 78.8442 1.16824 79.4853 1.37825C80.1307 1.58826 80.7022 1.89488 81.2 2.2981C81.6977 2.69712 82.1026 3.18645 82.4148 3.76608C82.7311 4.34571 82.9336 5.00935 83.0222 5.75699Z" fill="white"/>
<path d="M86.8165 14.3255C86.1965 14.3255 85.6439 14.2184 85.1588 14.0041C84.6737 13.7857 84.2899 13.4644 84.0073 13.0402C83.7289 12.6118 83.5897 12.0783 83.5897 11.4399C83.5897 10.9023 83.6888 10.4507 83.8871 10.0853C84.0853 9.71991 84.3553 9.42589 84.6969 9.20328C85.0386 8.98067 85.4267 8.81266 85.8611 8.69925C86.2998 8.58584 86.7596 8.50604 87.2404 8.45984C87.8057 8.40103 88.2612 8.34643 88.6071 8.29603C88.953 8.24143 89.2039 8.16162 89.36 8.05662C89.5161 7.95161 89.5941 7.7962 89.5941 7.59039V7.55259C89.5941 7.15357 89.4676 6.84485 89.2145 6.62644C88.9656 6.40803 88.6113 6.29882 88.1515 6.29882C87.6665 6.29882 87.2805 6.40593 86.9937 6.62014C86.7068 6.83015 86.517 7.09476 86.4242 7.41398L83.9314 7.21237C84.0579 6.62434 84.3068 6.11611 84.678 5.68769C85.0491 5.25506 85.5279 4.92324 86.1142 4.69223C86.7047 4.45702 87.3881 4.33941 88.1642 4.33941C88.7041 4.33941 89.2208 4.40242 89.7143 4.52842C90.2121 4.65443 90.6528 4.84974 91.0367 5.11435C91.4247 5.37897 91.7306 5.71919 91.9541 6.13501C92.1777 6.54663 92.2895 7.04016 92.2895 7.61559V14.1427H89.7333V12.8008H89.6574C89.5013 13.1032 89.2925 13.3699 89.031 13.6009C88.7695 13.8277 88.4552 14.0062 88.0883 14.1364C87.7213 14.2625 87.2974 14.3255 86.8165 14.3255ZM87.5884 12.4732C87.9849 12.4732 88.335 12.3955 88.6387 12.24C88.9424 12.0804 89.1807 11.8662 89.3537 11.5974C89.5266 11.3286 89.6131 11.0241 89.6131 10.6839V9.6569C89.5287 9.71151 89.4127 9.76191 89.2651 9.80811C89.1217 9.85011 88.9593 9.89002 88.7779 9.92782C88.5965 9.96142 88.4152 9.99292 88.2338 10.0223C88.0524 10.0475 87.8879 10.0706 87.7403 10.0916C87.4239 10.1378 87.1476 10.2113 86.9114 10.3121C86.6752 10.4129 86.4917 10.5495 86.361 10.7217C86.2302 10.8897 86.1648 11.0997 86.1648 11.3517C86.1648 11.7171 86.2977 11.9964 86.5634 12.1896C86.8334 12.3787 87.1751 12.4732 87.5884 12.4732Z" fill="white"/>
<path d="M93.4897 14.1427V4.46542H96.0585V6.17281H96.1724C96.3749 5.60578 96.7123 5.15846 97.1847 4.83084C97.6571 4.50322 98.2224 4.33941 98.8804 4.33941C99.5468 4.33941 100.114 4.50532 100.582 4.83714C101.051 5.16476 101.363 5.60998 101.519 6.17281H101.62C101.818 5.61838 102.177 5.17526 102.696 4.84344C103.219 4.50742 103.837 4.33941 104.549 4.33941C105.456 4.33941 106.192 4.62713 106.758 5.20256C107.327 5.77379 107.612 6.58443 107.612 7.63449V14.1427H104.923V8.16372C104.923 7.62609 104.779 7.22287 104.493 6.95406C104.206 6.68524 103.847 6.55083 103.417 6.55083C102.928 6.55083 102.546 6.70624 102.272 7.01706C101.998 7.32367 101.86 7.729 101.86 8.23303V14.1427H99.2474V8.10702C99.2474 7.63239 99.1103 7.25437 98.8361 6.97296C98.5661 6.69154 98.2097 6.55083 97.7668 6.55083C97.4673 6.55083 97.1974 6.62644 96.9569 6.77765C96.7207 6.92465 96.533 7.13256 96.3938 7.40138C96.2546 7.66599 96.185 7.97681 96.185 8.33383V14.1427H93.4897Z" fill="white"/>
<path d="M108.85 17.7717V4.46542H111.507V6.09091H111.628C111.746 5.83049 111.917 5.56588 112.14 5.29706C112.368 5.02405 112.663 4.79724 113.026 4.61663C113.393 4.43182 113.848 4.33941 114.393 4.33941C115.101 4.33941 115.755 4.52422 116.354 4.89384C116.953 5.25926 117.432 5.81159 117.79 6.55083C118.149 7.28587 118.328 8.20782 118.328 9.31668C118.328 10.3961 118.153 11.3076 117.803 12.051C117.457 12.7903 116.985 13.351 116.386 13.7332C115.791 14.1112 115.124 14.3003 114.386 14.3003C113.863 14.3003 113.418 14.2142 113.051 14.0419C112.688 13.8697 112.391 13.6534 112.159 13.393C111.927 13.1284 111.75 12.8617 111.628 12.5929H111.545V17.7717H108.85ZM111.488 9.30408C111.488 9.87951 111.569 10.3814 111.729 10.8099C111.889 11.2383 112.121 11.5722 112.425 11.8116C112.728 12.0468 113.098 12.1644 113.532 12.1644C113.971 12.1644 114.342 12.0447 114.646 11.8053C114.949 11.5617 115.179 11.2257 115.335 10.7973C115.496 10.3646 115.576 9.86691 115.576 9.30408C115.576 8.74545 115.498 8.25403 115.342 7.8298C115.186 7.40558 114.956 7.07376 114.652 6.83435C114.348 6.59494 113.975 6.47523 113.532 6.47523C113.093 6.47523 112.722 6.59073 112.418 6.82175C112.119 7.05276 111.889 7.38038 111.729 7.8046C111.569 8.22882 111.488 8.72865 111.488 9.30408Z" fill="white"/>
<path d="M125.466 10.0223V4.46542H128.162V14.1427H125.574V12.385H125.473C125.253 12.952 124.888 13.4077 124.378 13.7521C123.872 14.0965 123.254 14.2688 122.524 14.2688C121.875 14.2688 121.303 14.1217 120.809 13.8277C120.316 13.5337 119.93 13.1158 119.652 12.574C119.377 12.0321 119.238 11.3832 119.234 10.6272V4.46542H121.929V10.1483C121.934 10.7196 122.088 11.1711 122.391 11.5029C122.695 11.8347 123.102 12.0006 123.612 12.0006C123.937 12.0006 124.241 11.9271 124.523 11.7801C124.806 11.6289 125.034 11.4063 125.207 11.1123C125.384 10.8183 125.47 10.4549 125.466 10.0223Z" fill="white"/>
<path d="M137.513 7.22497L135.045 7.37618C135.003 7.16617 134.912 6.97716 134.773 6.80915C134.634 6.63694 134.45 6.50043 134.223 6.39962C133.999 6.29462 133.731 6.24212 133.419 6.24212C133.001 6.24212 132.649 6.33032 132.362 6.50673C132.076 6.67894 131.932 6.90995 131.932 7.19977C131.932 7.43078 132.025 7.62609 132.211 7.7857C132.396 7.94531 132.715 8.07342 133.166 8.17002L134.925 8.52284C135.87 8.71605 136.574 9.02687 137.038 9.45529C137.502 9.88371 137.734 10.4465 137.734 11.1438C137.734 11.778 137.546 12.3345 137.171 12.8134C136.8 13.2922 136.289 13.666 135.64 13.9348C134.994 14.1995 134.25 14.3318 133.406 14.3318C132.12 14.3318 131.095 14.065 130.331 13.5316C129.572 12.994 129.127 12.2631 128.996 11.3391L131.647 11.2005C131.728 11.5911 131.922 11.8893 132.23 12.0951C132.537 12.2967 132.932 12.3976 133.413 12.3976C133.885 12.3976 134.265 12.3072 134.552 12.1266C134.843 11.9418 134.99 11.7045 134.994 11.4147C134.99 11.1711 134.887 10.9716 134.684 10.8162C134.482 10.6566 134.17 10.5348 133.748 10.4507L132.065 10.1168C131.116 9.92782 130.409 9.6002 129.945 9.13397C129.486 8.66775 129.256 8.07342 129.256 7.35098C129.256 6.72934 129.425 6.19381 129.762 5.74439C130.104 5.29496 130.582 4.94845 131.198 4.70483C131.818 4.46122 132.544 4.33941 133.375 4.33941C134.602 4.33941 135.568 4.59773 136.273 5.11435C136.981 5.63098 137.395 6.33452 137.513 7.22497Z" fill="white"/>
<path d="M83.0223 22.5546H80.251C80.2004 22.1976 80.0971 21.8805 79.941 21.6032C79.7849 21.3218 79.5846 21.0824 79.3399 20.885C79.0953 20.6876 78.8127 20.5364 78.4921 20.4314C78.1757 20.3264 77.832 20.2739 77.4608 20.2739C76.7901 20.2739 76.2059 20.4398 75.7082 20.7716C75.2104 21.0992 74.8245 21.578 74.5503 22.2081C74.2761 22.8339 74.1391 23.5941 74.1391 24.4888C74.1391 25.4086 74.2761 26.1815 74.5503 26.8073C74.8287 27.4332 75.2168 27.9057 75.7145 28.2249C76.2122 28.5441 76.788 28.7037 77.4418 28.7037C77.8088 28.7037 78.1483 28.6554 78.4605 28.5588C78.7768 28.4622 79.0573 28.3215 79.302 28.1367C79.5466 27.9477 79.7491 27.7188 79.9094 27.45C80.0739 27.1811 80.1878 26.8745 80.251 26.5301L83.0223 26.5427C82.9506 27.1349 82.7713 27.7062 82.4845 28.2564C82.2019 28.8024 81.8201 29.2918 81.3393 29.7244C80.8626 30.1528 80.2932 30.493 79.631 30.745C78.973 30.9929 78.2285 31.1168 77.3975 31.1168C76.2418 31.1168 75.2083 30.8563 74.2972 30.3355C73.3904 29.8147 72.6733 29.0607 72.146 28.0737C71.623 27.0866 71.3615 25.8917 71.3615 24.4888C71.3615 23.0817 71.6272 21.8847 72.1587 20.8976C72.6902 19.9105 73.4114 19.1587 74.3225 18.6421C75.2336 18.1213 76.2586 17.8608 77.3975 17.8608C78.1483 17.8608 78.8443 17.9658 79.4855 18.1759C80.1308 18.3859 80.7024 18.6925 81.2001 19.0957C81.6978 19.4947 82.1028 19.9841 82.4149 20.5637C82.7313 21.1433 82.9337 21.807 83.0223 22.5546Z" fill="white"/>
<path d="M88.4364 31.1294C87.4536 31.1294 86.6036 30.9215 85.8866 30.5056C85.1737 30.0856 84.6233 29.5018 84.2352 28.7541C83.8471 28.0023 83.6531 27.1307 83.6531 26.1395C83.6531 25.1398 83.8471 24.2662 84.2352 23.5185C84.6233 22.7667 85.1737 22.1829 85.8866 21.767C86.6036 21.347 87.4536 21.137 88.4364 21.137C89.4192 21.137 90.267 21.347 90.9799 21.767C91.697 22.1829 92.2495 22.7667 92.6376 23.5185C93.0256 24.2662 93.2197 25.1398 93.2197 26.1395C93.2197 27.1307 93.0256 28.0023 92.6376 28.7541C92.2495 29.5018 91.697 30.0856 90.9799 30.5056C90.267 30.9215 89.4192 31.1294 88.4364 31.1294ZM88.449 29.0502C88.8962 29.0502 89.2695 28.9242 89.5689 28.6722C89.8684 28.416 90.0941 28.0674 90.2459 27.6264C90.402 27.1853 90.48 26.6834 90.48 26.1206C90.48 25.5578 90.402 25.0558 90.2459 24.6148C90.0941 24.1738 89.8684 23.8252 89.5689 23.5689C89.2695 23.3127 88.8962 23.1846 88.449 23.1846C87.9977 23.1846 87.6181 23.3127 87.3102 23.5689C87.0065 23.8252 86.7766 24.1738 86.6205 24.6148C86.4687 25.0558 86.3927 25.5578 86.3927 26.1206C86.3927 26.6834 86.4687 27.1853 86.6205 27.6264C86.7766 28.0674 87.0065 28.416 87.3102 28.6722C87.6181 28.9242 87.9977 29.0502 88.449 29.0502Z" fill="white"/>
<path d="M94.0814 30.9404V21.263H96.7768V30.9404H94.0814ZM95.4354 20.0156C95.0347 20.0156 94.6909 19.8832 94.4041 19.6186C94.1215 19.3498 93.9802 19.0285 93.9802 18.6547C93.9802 18.2851 94.1215 17.9679 94.4041 17.7033C94.6909 17.4345 95.0347 17.3001 95.4354 17.3001C95.8361 17.3001 96.1778 17.4345 96.4604 17.7033C96.7472 17.9679 96.8906 18.2851 96.8906 18.6547C96.8906 19.0285 96.7472 19.3498 96.4604 19.6186C96.1778 19.8832 95.8361 20.0156 95.4354 20.0156Z" fill="white"/>
<path d="M100.74 25.3456V30.9404H98.045V21.263H100.614V22.9704H100.728C100.943 22.4076 101.303 21.9624 101.81 21.6347C102.316 21.3029 102.93 21.137 103.651 21.137C104.326 21.137 104.914 21.284 105.416 21.578C105.918 21.8721 106.308 22.2921 106.587 22.8381C106.865 23.3799 107.004 24.0268 107.004 24.7786V30.9404H104.309V25.2574C104.313 24.6652 104.161 24.2032 103.853 23.8714C103.545 23.5353 103.121 23.3673 102.582 23.3673C102.219 23.3673 101.898 23.445 101.62 23.6005C101.346 23.7559 101.131 23.9827 100.974 24.2809C100.823 24.5749 100.745 24.9298 100.74 25.3456Z" fill="white"/>
<path d="M57.8117 19.4487C60.2611 20.6225 61.6591 21.9769 61.6591 23.4204V15.4771C61.6591 16.9206 60.2611 18.2749 57.8117 19.4487Z" fill="white"/>
<path d="M61.6591 23.4204C61.6591 21.9769 60.2611 20.6225 57.8117 19.4487C52.8889 21.8079 43.7174 23.4349 33.1013 23.5701V31.5134C48.9996 31.311 61.6591 27.765 61.6591 23.4204Z" fill="white"/>
<path d="M58.7871 13.7285C58.7871 15.2177 56.98 16.5972 53.9006 17.7312C51.4467 16.2307 43.1474 15.105 33.1011 15.0065V6.74805C47.4126 6.94044 58.7871 9.99213 58.7871 13.7285Z" fill="white"/>
<path d="M5.19999 14.0464C2.75059 15.2202 1.35263 16.5745 1.35263 18.018V10.0747C1.35263 11.5182 2.75059 12.8725 5.19999 14.0464Z" fill="white"/>
<path d="M1.35263 18.018C1.35263 16.5745 2.75059 15.2202 5.19999 14.0464C10.1228 16.4055 19.2943 18.0325 29.9104 18.1678V26.1111C14.0121 25.9087 1.35263 22.3627 1.35263 18.018Z" fill="white"/>
<path d="M4.22437 8.32741C4.22437 9.81657 6.03148 11.1961 9.11092 12.3301C11.5648 10.8296 19.864 9.70391 29.9104 9.60536V1.34692C15.5989 1.53932 4.22437 4.59101 4.22437 8.32741Z" fill="white"/>
</svg>
