<svg width="12" height="12" viewBox="0 0 12 12" fill="none" xmlns="http://www.w3.org/2000/svg">
    <circle cx="5.97297" cy="5.97297" r="5.97297" fill="white"/>
    <path d="M9.58108 6.4328C9.91698 6.61158 10.1087 6.81785 10.1087 7.03771V5.82788C10.1087 6.04774 9.91698 6.25401 9.58108 6.4328Z" fill="#01157E"/>
    <path d="M10.1087 7.03771C10.1087 6.81785 9.91698 6.61158 9.58108 6.4328C8.90598 6.79212 7.64823 7.03992 6.19238 7.06052V8.27035C8.37261 8.23952 10.1087 7.69944 10.1087 7.03771Z" fill="#01157E"/>
    <path d="M9.71487 5.56148C9.71487 5.78829 9.46705 5.9984 9.04475 6.17112C8.70823 5.94258 7.57011 5.77113 6.19238 5.75612V4.49829C8.15501 4.52759 9.71487 4.99239 9.71487 5.56148Z" fill="#01157E"/>
    <path d="M2.3657 5.61004C2.0298 5.78883 1.83809 5.9951 1.83809 6.21496V5.00513C1.83809 5.22498 2.0298 5.43126 2.3657 5.61004Z" fill="#01157E"/>
    <path d="M1.83809 6.21496C1.83809 5.9951 2.0298 5.78883 2.3657 5.61004C3.0408 5.96937 4.29855 6.21717 5.75439 6.23776V7.4476C3.57417 7.41677 1.83809 6.87669 1.83809 6.21496Z" fill="#01157E"/>
    <path d="M2.23191 4.73921C2.23191 4.96602 2.47973 5.17614 2.90203 5.34885C3.23855 5.12031 4.37667 4.94886 5.75439 4.93385V3.67603C3.79177 3.70533 2.23191 4.17013 2.23191 4.73921Z" fill="#01157E"/>
</svg>
