<svg width="60" height="12" viewBox="0 0 60 12" fill="none" xmlns="http://www.w3.org/2000/svg">
    <path d="M18.7245 6.00067C19.5369 6.38979 20.0005 6.83874 20.0005 7.31726V4.68408C20.0005 5.1626 19.5369 5.61155 18.7245 6.00067Z" fill="white"/>
    <path d="M20.0005 7.31726C20.0005 6.83874 19.5369 6.38979 18.7245 6.00067C17.0919 6.78273 14.0501 7.32206 10.5293 7.36689V10.0001C15.802 9.93297 20.0005 8.7575 20.0005 7.31726Z" fill="white"/>
    <path d="M19.0481 4.10453C19.0481 4.59818 18.4488 5.0555 17.4275 5.4314C16.6136 4.93399 13.8612 4.56084 10.5293 4.52816V1.79053C15.2757 1.85431 19.0481 2.86593 19.0481 4.10453Z" fill="white"/>
    <path d="M1.27643 4.20965C0.464085 4.59878 0.000450134 5.04772 0.000450134 5.52624V2.89307C0.000450134 3.37158 0.464085 3.82053 1.27643 4.20965Z" fill="white"/>
    <path d="M0.000450134 5.52624C0.000450134 5.04772 0.464085 4.59878 1.27643 4.20965C2.9091 4.99171 5.95085 5.53105 9.47168 5.57588V8.20905C4.199 8.14196 0.000450134 6.96648 0.000450134 5.52624Z" fill="white"/>
    <path d="M0.952376 2.314C0.952376 2.80765 1.55171 3.26497 2.57301 3.64087C3.38684 3.14347 6.1393 2.77031 9.47119 2.73764V0C4.72476 0.0637779 0.952376 1.0754 0.952376 2.314Z" fill="white"/>
    <path d="M31.5525 9.5L28.7485 5.77983H28.1179V9.5H26.2727V0.772727H28.1179V4.25852H28.4886L31.3863 0.772727H33.6832L30.2784 4.82102L33.8409 9.5H31.5525ZM36.0012 9.62358C35.5835 9.62358 35.2114 9.55114 34.8847 9.40625C34.558 9.25852 34.2995 9.04119 34.1091 8.75426C33.9216 8.46449 33.8279 8.10369 33.8279 7.67188C33.8279 7.30824 33.8946 7.00284 34.0282 6.75568C34.1617 6.50852 34.3435 6.30966 34.5736 6.15909C34.8037 6.00852 35.0651 5.89489 35.3577 5.81818C35.6532 5.74148 35.9628 5.6875 36.2867 5.65625C36.6674 5.61648 36.9742 5.57955 37.2071 5.54545C37.4401 5.50852 37.6091 5.45455 37.7142 5.38352C37.8193 5.3125 37.8719 5.20739 37.8719 5.06818V5.04261C37.8719 4.77273 37.7867 4.56392 37.6162 4.41619C37.4486 4.26847 37.21 4.1946 36.9003 4.1946C36.5736 4.1946 36.3137 4.26705 36.1205 4.41193C35.9273 4.55398 35.7995 4.73295 35.737 4.94886L34.058 4.8125C34.1432 4.41477 34.3108 4.07102 34.5608 3.78125C34.8108 3.48864 35.1333 3.2642 35.5282 3.10795C35.9259 2.94886 36.3861 2.86932 36.9088 2.86932C37.2725 2.86932 37.6205 2.91193 37.9529 2.99716C38.2881 3.08239 38.585 3.21449 38.8435 3.39347C39.1049 3.57244 39.3108 3.80256 39.4614 4.08381C39.612 4.36222 39.6872 4.69602 39.6872 5.08523V9.5H37.9657V8.59233H37.9145C37.8094 8.79688 37.6688 8.97727 37.4926 9.13352C37.3165 9.28693 37.1049 9.40767 36.8577 9.49574C36.6105 9.58097 36.325 9.62358 36.0012 9.62358ZM36.521 8.37074C36.7881 8.37074 37.0239 8.31818 37.2284 8.21307C37.433 8.10511 37.5935 7.96023 37.71 7.77841C37.8264 7.59659 37.8847 7.39062 37.8847 7.16051V6.46591C37.8279 6.50284 37.7497 6.53693 37.6503 6.56818C37.5537 6.59659 37.4443 6.62358 37.3222 6.64915C37.2 6.67187 37.0779 6.69318 36.9557 6.71307C36.8335 6.73011 36.7228 6.74574 36.6233 6.75994C36.4103 6.79119 36.2242 6.84091 36.0651 6.90909C35.906 6.97727 35.7824 7.0696 35.6943 7.18608C35.6063 7.29972 35.5622 7.44176 35.5622 7.61222C35.5622 7.85938 35.6517 8.0483 35.8307 8.17898C36.0125 8.30682 36.2426 8.37074 36.521 8.37074ZM40.4956 11.9545V2.95455H42.2854V4.05398H42.3664C42.4459 3.87784 42.561 3.69886 42.7115 3.51705C42.8649 3.33239 43.0638 3.17898 43.3081 3.05682C43.5553 2.93182 43.8621 2.86932 44.2286 2.86932C44.7059 2.86932 45.1462 2.99432 45.5496 3.24432C45.953 3.49148 46.2755 3.86506 46.5169 4.36506C46.7584 4.86222 46.8791 5.4858 46.8791 6.2358C46.8791 6.96591 46.7612 7.58239 46.5255 8.08523C46.2925 8.58523 45.9743 8.96449 45.5709 9.22301C45.1703 9.47869 44.7215 9.60653 44.2243 9.60653C43.872 9.60653 43.5723 9.5483 43.3252 9.43182C43.0809 9.31534 42.8806 9.16903 42.7243 8.9929C42.5681 8.81392 42.4487 8.63352 42.3664 8.4517H42.311V11.9545H40.4956ZM42.2726 6.22727C42.2726 6.61648 42.3266 6.95597 42.4345 7.24574C42.5425 7.53551 42.6987 7.76136 42.9033 7.9233C43.1078 8.08239 43.3564 8.16193 43.649 8.16193C43.9445 8.16193 44.1945 8.08097 44.399 7.91903C44.6036 7.75426 44.7584 7.52699 44.8635 7.23722C44.9715 6.9446 45.0255 6.60795 45.0255 6.22727C45.0255 5.84943 44.9729 5.51705 44.8678 5.23011C44.7627 4.94318 44.6078 4.71875 44.4033 4.55682C44.1987 4.39489 43.9473 4.31392 43.649 4.31392C43.3536 4.31392 43.1036 4.39205 42.899 4.5483C42.6973 4.70455 42.5425 4.92614 42.4345 5.21307C42.3266 5.5 42.2726 5.83807 42.2726 6.22727ZM46.8555 4.3821V2.95455H52.7873V4.3821H50.6779V9.5H48.9478V4.3821H46.8555ZM54.9199 9.62358C54.5023 9.62358 54.1301 9.55114 53.8034 9.40625C53.4767 9.25852 53.2182 9.04119 53.0279 8.75426C52.8404 8.46449 52.7466 8.10369 52.7466 7.67188C52.7466 7.30824 52.8134 7.00284 52.9469 6.75568C53.0804 6.50852 53.2622 6.30966 53.4924 6.15909C53.7225 6.00852 53.9838 5.89489 54.2764 5.81818C54.5719 5.74148 54.8816 5.6875 55.2054 5.65625C55.5861 5.61648 55.8929 5.57955 56.1259 5.54545C56.3588 5.50852 56.5279 5.45455 56.633 5.38352C56.7381 5.3125 56.7907 5.20739 56.7907 5.06818V5.04261C56.7907 4.77273 56.7054 4.56392 56.535 4.41619C56.3674 4.26847 56.1287 4.1946 55.8191 4.1946C55.4924 4.1946 55.2324 4.26705 55.0392 4.41193C54.846 4.55398 54.7182 4.73295 54.6557 4.94886L52.9767 4.8125C53.062 4.41477 53.2296 4.07102 53.4796 3.78125C53.7296 3.48864 54.052 3.2642 54.4469 3.10795C54.8446 2.94886 55.3049 2.86932 55.8276 2.86932C56.1912 2.86932 56.5392 2.91193 56.8716 2.99716C57.2068 3.08239 57.5037 3.21449 57.7622 3.39347C58.0236 3.57244 58.2296 3.80256 58.3801 4.08381C58.5307 4.36222 58.606 4.69602 58.606 5.08523V9.5H56.8844V8.59233H56.8333C56.7282 8.79688 56.5875 8.97727 56.4114 9.13352C56.2353 9.28693 56.0236 9.40767 55.7764 9.49574C55.5293 9.58097 55.2438 9.62358 54.9199 9.62358ZM55.4398 8.37074C55.7068 8.37074 55.9426 8.31818 56.1472 8.21307C56.3517 8.10511 56.5122 7.96023 56.6287 7.77841C56.7452 7.59659 56.8034 7.39062 56.8034 7.16051V6.46591C56.7466 6.50284 56.6685 6.53693 56.5691 6.56818C56.4725 6.59659 56.3631 6.62358 56.2409 6.64915C56.1188 6.67187 55.9966 6.69318 55.8745 6.71307C55.7523 6.73011 55.6415 6.74574 55.5421 6.75994C55.329 6.79119 55.1429 6.84091 54.9838 6.90909C54.8247 6.97727 54.7012 7.0696 54.6131 7.18608C54.525 7.29972 54.481 7.44176 54.481 7.61222C54.481 7.85938 54.5705 8.0483 54.7495 8.17898C54.9313 8.30682 55.1614 8.37074 55.4398 8.37074Z" fill="white"/>
</svg>
