<svg width="140" height="33" viewBox="0 0 140 33" fill="none" xmlns="http://www.w3.org/2000/svg">
    <path d="M83.0222 5.75723H80.2509C80.2003 5.40021 80.0969 5.0831 79.9409 4.80588C79.7848 4.52447 79.5844 4.28505 79.3398 4.08764C79.0951 3.89023 78.8125 3.73902 78.492 3.63402C78.1756 3.52901 77.8318 3.47651 77.4606 3.47651C76.79 3.47651 76.2058 3.64242 75.708 3.97424C75.2103 4.30185 74.8244 4.78068 74.5502 5.41071C74.276 6.03655 74.1389 6.79679 74.1389 7.69144C74.1389 8.61129 74.276 9.38413 74.5502 10.01C74.8286 10.6358 75.2166 11.1083 75.7144 11.4275C76.2121 11.7468 76.7879 11.9064 77.4417 11.9064C77.8086 11.9064 78.1482 11.8581 78.4603 11.7615C78.7767 11.6649 79.0572 11.5241 79.3018 11.3393C79.5465 11.1503 79.7489 10.9214 79.9092 10.6526C80.0737 10.3838 80.1876 10.0772 80.2509 9.73275L83.0222 9.74535C82.9505 10.3376 82.7712 10.9088 82.4844 11.459C82.2017 12.0051 81.82 12.4944 81.3392 12.927C80.8625 13.3554 80.2931 13.6957 79.6308 13.9477C78.9728 14.1955 78.2283 14.3194 77.3974 14.3194C76.2416 14.3194 75.2082 14.059 74.2971 13.5382C73.3902 13.0173 72.6731 12.2634 72.1459 11.2763C71.6228 10.2893 71.3613 9.09432 71.3613 7.69144C71.3613 6.28436 71.6271 5.0873 72.1585 4.10024C72.69 3.11319 73.4113 2.36135 74.3224 1.84472C75.2335 1.32389 76.2585 1.06348 77.3974 1.06348C78.1482 1.06348 78.8442 1.16848 79.4853 1.37849C80.1307 1.58851 80.7022 1.89512 81.2 2.29834C81.6977 2.69737 82.1026 3.18669 82.4148 3.76632C82.7311 4.34596 82.9336 5.00959 83.0222 5.75723Z" fill="#01157E"/>
    <path d="M86.8165 14.3257C86.1965 14.3257 85.6439 14.2186 85.1588 14.0044C84.6737 13.786 84.2899 13.4647 84.0073 13.0404C83.7289 12.612 83.5897 12.0786 83.5897 11.4401C83.5897 10.9025 83.6888 10.451 83.8871 10.0856C84.0853 9.72015 84.3553 9.42613 84.6969 9.20352C85.0386 8.98091 85.4267 8.8129 85.8611 8.69949C86.2998 8.58609 86.7596 8.50628 87.2404 8.46008C87.8057 8.40128 88.2612 8.34667 88.6071 8.29627C88.953 8.24167 89.2039 8.16187 89.36 8.05686C89.5161 7.95185 89.5941 7.79645 89.5941 7.59063V7.55283C89.5941 7.15381 89.4676 6.84509 89.2145 6.62668C88.9656 6.40827 88.6113 6.29906 88.1515 6.29906C87.6665 6.29906 87.2805 6.40617 86.9937 6.62038C86.7068 6.83039 86.517 7.09501 86.4242 7.41422L83.9314 7.21261C84.0579 6.62458 84.3068 6.11635 84.678 5.68793C85.0491 5.25531 85.5279 4.92349 86.1142 4.69247C86.7047 4.45726 87.3881 4.33966 88.1642 4.33966C88.7041 4.33966 89.2208 4.40266 89.7143 4.52867C90.2121 4.65467 90.6528 4.84998 91.0367 5.1146C91.4247 5.37921 91.7306 5.71943 91.9541 6.13525C92.1777 6.54688 92.2895 7.0404 92.2895 7.61583V14.143H89.7333V12.801H89.6574C89.5013 13.1034 89.2925 13.3702 89.031 13.6012C88.7695 13.828 88.4552 14.0065 88.0883 14.1367C87.7213 14.2627 87.2974 14.3257 86.8165 14.3257ZM87.5884 12.4734C87.9849 12.4734 88.335 12.3957 88.6387 12.2403C88.9424 12.0807 89.1807 11.8665 89.3537 11.5977C89.5266 11.3288 89.6131 11.0243 89.6131 10.6841V9.65715C89.5287 9.71175 89.4127 9.76215 89.2651 9.80836C89.1217 9.85036 88.9593 9.89026 88.7779 9.92806C88.5965 9.96166 88.4152 9.99317 88.2338 10.0226C88.0524 10.0478 87.8879 10.0709 87.7403 10.0919C87.4239 10.1381 87.1476 10.2116 86.9114 10.3124C86.6752 10.4132 86.4917 10.5497 86.361 10.7219C86.2302 10.8899 86.1648 11.0999 86.1648 11.3519C86.1648 11.7174 86.2977 11.9967 86.5634 12.1899C86.8334 12.3789 87.1751 12.4734 87.5884 12.4734Z" fill="#01157E"/>
    <path d="M93.4897 14.143V4.46566H96.0585V6.17306H96.1724C96.3749 5.60603 96.7123 5.1587 97.1847 4.83108C97.6571 4.50347 98.2224 4.33966 98.8804 4.33966C99.5468 4.33966 100.114 4.50557 100.582 4.83738C101.051 5.165 101.363 5.61023 101.519 6.17306H101.62C101.818 5.61863 102.177 5.1755 102.696 4.84368C103.219 4.50767 103.837 4.33966 104.549 4.33966C105.456 4.33966 106.192 4.62737 106.758 5.2028C107.327 5.77403 107.612 6.58468 107.612 7.63474V14.143H104.923V8.16397C104.923 7.62634 104.779 7.22311 104.493 6.9543C104.206 6.68548 103.847 6.55108 103.417 6.55108C102.928 6.55108 102.546 6.70649 102.272 7.0173C101.998 7.32392 101.86 7.72924 101.86 8.23327V14.143H99.2474V8.10726C99.2474 7.63264 99.1103 7.25461 98.8361 6.9732C98.5661 6.69178 98.2097 6.55108 97.7668 6.55108C97.4673 6.55108 97.1974 6.62668 96.9569 6.77789C96.7207 6.9249 96.533 7.13281 96.3938 7.40162C96.2546 7.66624 96.185 7.97705 96.185 8.33407V14.143H93.4897Z" fill="#01157E"/>
    <path d="M108.85 17.772V4.46566H111.507V6.09115H111.628C111.746 5.83074 111.917 5.56612 112.14 5.29731C112.368 5.02429 112.663 4.79748 113.026 4.61687C113.393 4.43206 113.848 4.33966 114.393 4.33966C115.101 4.33966 115.755 4.52447 116.354 4.89409C116.953 5.25951 117.432 5.81184 117.79 6.55108C118.149 7.28612 118.328 8.20807 118.328 9.31693C118.328 10.3964 118.153 11.3078 117.803 12.0513C117.457 12.7905 116.985 13.3512 116.386 13.7335C115.791 14.1115 115.124 14.3005 114.386 14.3005C113.863 14.3005 113.418 14.2144 113.051 14.0422C112.688 13.87 112.391 13.6537 112.159 13.3933C111.927 13.1286 111.75 12.8619 111.628 12.5931H111.545V17.772H108.85ZM111.488 9.30433C111.488 9.87976 111.569 10.3817 111.729 10.8101C111.889 11.2385 112.121 11.5725 112.425 11.8119C112.728 12.0471 113.098 12.1647 113.532 12.1647C113.971 12.1647 114.342 12.045 114.646 11.8056C114.949 11.562 115.179 11.2259 115.335 10.7975C115.496 10.3649 115.576 9.86716 115.576 9.30433C115.576 8.7457 115.498 8.25427 115.342 7.83005C115.186 7.40582 114.956 7.07401 114.652 6.83459C114.348 6.59518 113.975 6.47547 113.532 6.47547C113.093 6.47547 112.722 6.59098 112.418 6.82199C112.119 7.053 111.889 7.38062 111.729 7.80485C111.569 8.22907 111.488 8.7289 111.488 9.30433Z" fill="#01157E"/>
    <path d="M125.466 10.0226V4.46566H128.162V14.143H125.574V12.3852H125.473C125.253 12.9522 124.888 13.408 124.378 13.7524C123.872 14.0968 123.254 14.269 122.524 14.269C121.875 14.269 121.303 14.122 120.809 13.828C120.316 13.534 119.93 13.116 119.652 12.5742C119.377 12.0324 119.238 11.3834 119.234 10.6274V4.46566H121.929V10.1486C121.934 10.7198 122.088 11.1713 122.391 11.5031C122.695 11.835 123.102 12.0009 123.612 12.0009C123.937 12.0009 124.241 11.9274 124.523 11.7804C124.806 11.6292 125.034 11.4065 125.207 11.1125C125.384 10.8185 125.47 10.4552 125.466 10.0226Z" fill="#01157E"/>
    <path d="M137.513 7.22521L135.045 7.37642C135.003 7.16641 134.912 6.9774 134.773 6.80939C134.634 6.63718 134.45 6.50067 134.223 6.39987C133.999 6.29486 133.731 6.24236 133.419 6.24236C133.001 6.24236 132.649 6.33056 132.362 6.50697C132.076 6.67918 131.932 6.9102 131.932 7.20001C131.932 7.43103 132.025 7.62634 132.211 7.78594C132.396 7.94555 132.715 8.07366 133.166 8.17027L134.925 8.52308C135.87 8.7163 136.574 9.02711 137.038 9.45554C137.502 9.88396 137.734 10.4468 137.734 11.144C137.734 11.7783 137.546 12.3348 137.171 12.8136C136.8 13.2924 136.289 13.6663 135.64 13.9351C134.994 14.1997 134.25 14.332 133.406 14.332C132.12 14.332 131.095 14.0653 130.331 13.5319C129.572 12.9942 129.127 12.2634 128.996 11.3393L131.647 11.2007C131.728 11.5914 131.922 11.8896 132.23 12.0954C132.537 12.297 132.932 12.3978 133.413 12.3978C133.885 12.3978 134.265 12.3075 134.552 12.1269C134.843 11.9421 134.99 11.7048 134.994 11.4149C134.99 11.1713 134.887 10.9718 134.684 10.8164C134.482 10.6568 134.17 10.535 133.748 10.451L132.065 10.1171C131.116 9.92806 130.409 9.60044 129.945 9.13422C129.486 8.66799 129.256 8.07366 129.256 7.35122C129.256 6.72959 129.425 6.19406 129.762 5.74463C130.104 5.29521 130.582 4.94869 131.198 4.70508C131.818 4.46146 132.544 4.33966 133.375 4.33966C134.602 4.33966 135.568 4.59797 136.273 5.1146C136.981 5.63123 137.395 6.33476 137.513 7.22521Z" fill="#01157E"/>
    <path d="M83.0223 22.5548H80.251C80.2004 22.1978 80.0971 21.8807 79.941 21.6035C79.7849 21.3221 79.5846 21.0827 79.3399 20.8852C79.0953 20.6878 78.8127 20.5366 78.4921 20.4316C78.1757 20.3266 77.832 20.2741 77.4608 20.2741C76.7901 20.2741 76.2059 20.44 75.7082 20.7718C75.2104 21.0995 74.8245 21.5783 74.5503 22.2083C74.2761 22.8342 74.1391 23.5944 74.1391 24.489C74.1391 25.4089 74.2761 26.1817 74.5503 26.8076C74.8287 27.4334 75.2168 27.9059 75.7145 28.2251C76.2122 28.5444 76.788 28.704 77.4418 28.704C77.8088 28.704 78.1483 28.6557 78.4605 28.5591C78.7768 28.4625 79.0573 28.3218 79.302 28.1369C79.5466 27.9479 79.7491 27.719 79.9094 27.4502C80.0739 27.1814 80.1878 26.8748 80.251 26.5304L83.0223 26.543C82.9506 27.1352 82.7713 27.7064 82.4845 28.2566C82.2019 28.8027 81.8201 29.292 81.3393 29.7246C80.8626 30.1531 80.2932 30.4933 79.631 30.7453C78.973 30.9931 78.2285 31.117 77.3975 31.117C76.2418 31.117 75.2083 30.8566 74.2972 30.3358C73.3904 29.8149 72.6733 29.061 72.146 28.0739C71.623 27.0869 71.3615 25.8919 71.3615 24.489C71.3615 23.082 71.6272 21.8849 72.1587 20.8978C72.6902 19.9108 73.4114 19.159 74.3225 18.6423C75.2336 18.1215 76.2586 17.8611 77.3975 17.8611C78.1483 17.8611 78.8443 17.9661 79.4855 18.1761C80.1308 18.3861 80.7024 18.6927 81.2001 19.0959C81.6978 19.495 82.1028 19.9843 82.4149 20.5639C82.7313 21.1436 82.9337 21.8072 83.0223 22.5548Z" fill="#01157E"/>
    <path d="M88.4364 31.1296C87.4536 31.1296 86.6036 30.9217 85.8866 30.5059C85.1737 30.0858 84.6233 29.502 84.2352 28.7544C83.8471 28.0025 83.6531 27.131 83.6531 26.1397C83.6531 25.1401 83.8471 24.2664 84.2352 23.5188C84.6233 22.7669 85.1737 22.1831 85.8866 21.7673C86.6036 21.3473 87.4536 21.1373 88.4364 21.1373C89.4192 21.1373 90.267 21.3473 90.9799 21.7673C91.697 22.1831 92.2495 22.7669 92.6376 23.5188C93.0256 24.2664 93.2197 25.1401 93.2197 26.1397C93.2197 27.131 93.0256 28.0025 92.6376 28.7544C92.2495 29.502 91.697 30.0858 90.9799 30.5059C90.267 30.9217 89.4192 31.1296 88.4364 31.1296ZM88.449 29.0505C88.8962 29.0505 89.2695 28.9245 89.5689 28.6725C89.8684 28.4163 90.0941 28.0676 90.2459 27.6266C90.402 27.1856 90.48 26.6837 90.48 26.1208C90.48 25.558 90.402 25.0561 90.2459 24.6151C90.0941 24.174 89.8684 23.8254 89.5689 23.5692C89.2695 23.313 88.8962 23.1849 88.449 23.1849C87.9977 23.1849 87.6181 23.313 87.3102 23.5692C87.0065 23.8254 86.7766 24.174 86.6205 24.6151C86.4687 25.0561 86.3927 25.558 86.3927 26.1208C86.3927 26.6837 86.4687 27.1856 86.6205 27.6266C86.7766 28.0676 87.0065 28.4163 87.3102 28.6725C87.6181 28.9245 87.9977 29.0505 88.449 29.0505Z" fill="#01157E"/>
    <path d="M94.0814 30.9406V21.2633H96.7768V30.9406H94.0814ZM95.4354 20.0158C95.0347 20.0158 94.6909 19.8835 94.4041 19.6189C94.1215 19.3501 93.9802 19.0287 93.9802 18.6549C93.9802 18.2853 94.1215 17.9682 94.4041 17.7036C94.6909 17.4348 95.0347 17.3004 95.4354 17.3004C95.8361 17.3004 96.1778 17.4348 96.4604 17.7036C96.7472 17.9682 96.8906 18.2853 96.8906 18.6549C96.8906 19.0287 96.7472 19.3501 96.4604 19.6189C96.1778 19.8835 95.8361 20.0158 95.4354 20.0158Z" fill="#01157E"/>
    <path d="M100.74 25.3459V30.9406H98.045V21.2633H100.614V22.9707H100.728C100.943 22.4078 101.303 21.9626 101.81 21.635C102.316 21.3032 102.93 21.1373 103.651 21.1373C104.326 21.1373 104.914 21.2843 105.416 21.5783C105.918 21.8723 106.308 22.2923 106.587 22.8384C106.865 23.3802 107.004 24.027 107.004 24.7789V30.9406H104.309V25.2577C104.313 24.6655 104.161 24.2034 103.853 23.8716C103.545 23.5356 103.121 23.3676 102.582 23.3676C102.219 23.3676 101.898 23.4453 101.62 23.6007C101.346 23.7561 101.131 23.9829 100.974 24.2811C100.823 24.5751 100.745 24.9301 100.74 25.3459Z" fill="#01157E"/>
    <path d="M57.8117 19.4492C60.2611 20.623 61.6591 21.9773 61.6591 23.4208V15.4775C61.6591 16.921 60.2611 18.2754 57.8117 19.4492Z" fill="#01157E"/>
    <path d="M61.6591 23.4208C61.6591 21.9773 60.2611 20.623 57.8117 19.4492C52.8889 21.8084 43.7174 23.4353 33.1013 23.5706V31.5139C48.9996 31.3115 61.6591 27.7655 61.6591 23.4208Z" fill="#01157E"/>
    <path d="M58.7871 13.7295C58.7871 15.2187 56.98 16.5982 53.9006 17.7322C51.4467 16.2317 43.1474 15.106 33.1011 15.0075V6.74902C47.4126 6.94142 58.7871 9.99311 58.7871 13.7295Z" fill="#01157E"/>
    <path d="M5.20024 14.0468C2.75083 15.2207 1.35288 16.575 1.35288 18.0185V10.0752C1.35288 11.5187 2.75083 12.873 5.20024 14.0468Z" fill="#01157E"/>
    <path d="M1.35288 18.0185C1.35288 16.575 2.75083 15.2207 5.20024 14.0468C10.1231 16.406 19.2946 18.033 29.9106 18.1682V26.1116C14.0124 25.9091 1.35288 22.3632 1.35288 18.0185Z" fill="#01157E"/>
    <path d="M4.22461 8.32814C4.22461 9.8173 6.03173 11.1969 9.11116 12.3308C11.565 10.8303 19.8643 9.70464 29.9106 9.60609V1.34766C15.5991 1.54005 4.22461 4.59174 4.22461 8.32814Z" fill="#01157E"/>
</svg>
