<svg width="34" height="19" viewBox="0 0 34 19" fill="none" xmlns="http://www.w3.org/2000/svg">
    <rect width="34" height="19" rx="1.83784" fill="white"/>
    <path d="M2.63525 5.4408H5.44025C5.69525 5.4408 6.46025 5.35444 6.80025 6.56353C7.05525 7.3408 7.39525 8.54989 7.90525 10.3635H8.07525C8.58525 8.46353 9.01025 7.16808 9.18025 6.56353C9.52025 5.35444 10.3703 5.4408 10.7103 5.4408H13.3453V13.7317H10.6253V8.80898H10.4553L9.01025 13.7317H6.97025L5.52525 8.80898H5.27025V13.7317H2.63525M14.4503 5.4408H17.1703V10.3635H17.4253L19.2103 6.30444C19.5503 5.52717 20.3153 5.4408 20.3153 5.4408H22.8653V13.7317H20.1453V8.80898H19.9753L18.1903 12.8681C17.8503 13.6453 17.0003 13.7317 17.0003 13.7317H14.4503M26.5203 11.2272V13.7317H23.9703V9.41353H32.3003C31.9603 10.4499 30.7703 11.2272 29.4103 11.2272" fill="#0F754E"/>
    <path d="M32.4703 8.89522C32.8103 7.34067 31.7903 5.44067 29.5803 5.44067H23.8003C23.9703 7.25431 25.5003 8.89522 27.1153 8.89522" fill="url(#paint0_linear_376_1310)"/>
    <defs>
        <linearGradient id="paint0_linear_376_1310" x1="31.4503" y1="4.31795" x2="24.6503" y2="4.31795" gradientUnits="userSpaceOnUse">
            <stop stop-color="#1F5CD7"/>
            <stop offset="1" stop-color="#02AEFF"/>
        </linearGradient>
    </defs>
</svg>
