<svg width="28" height="28" viewBox="0 0 28 28" fill="none" xmlns="http://www.w3.org/2000/svg">
    <circle cx="14" cy="14" r="14" fill="#FFD61C"/>
    <path d="M8.37513 10.25C8.2501 10.2498 8.12788 10.2871 8.02426 10.357C7.92064 10.427 7.84039 10.5264 7.79388 10.6425L5.29388 16.8925C5.25584 16.9874 5.24167 17.0902 5.25262 17.1919C5.26356 17.2936 5.2993 17.391 5.35668 17.4757C5.41406 17.5603 5.49133 17.6296 5.58172 17.6774C5.67212 17.7253 5.77286 17.7502 5.87513 17.75H22.1251C22.2274 17.7502 22.3281 17.7253 22.4185 17.6774C22.5089 17.6296 22.5862 17.5603 22.6436 17.4757C22.701 17.391 22.7367 17.2936 22.7476 17.1919C22.7586 17.0902 22.7444 16.9874 22.7064 16.8925L20.2064 10.6425C20.1599 10.5264 20.0796 10.427 19.976 10.357C19.8724 10.2871 19.7502 10.2498 19.6251 10.25H8.37513ZM10.8751 11.5H12.1251C12.4714 11.5 12.7501 11.7788 12.7501 12.125V13.375C12.7501 13.7213 12.4714 14 12.1251 14H10.8751C10.7094 14 10.5504 13.9342 10.4332 13.8169C10.316 13.6997 10.2501 13.5408 10.2501 13.375V12.125C10.2501 11.7788 10.5289 11.5 10.8751 11.5ZM15.8751 11.5H17.1251C17.4714 11.5 17.7501 11.7788 17.7501 12.125V13.375C17.7501 13.7213 17.4714 14 17.1251 14H15.8751C15.7094 14 15.5504 13.9342 15.4332 13.8169C15.316 13.6997 15.2501 13.5408 15.2501 13.375V12.125C15.2501 11.7788 15.5289 11.5 15.8751 11.5ZM8.37513 14H9.62513C9.97138 14 10.2501 14.2788 10.2501 14.625V15.875C10.2501 16.2213 9.97138 16.5 9.62513 16.5H8.37513C8.20937 16.5 8.0504 16.4342 7.93319 16.3169C7.81598 16.1997 7.75013 16.0408 7.75013 15.875V14.625C7.75013 14.2788 8.02888 14 8.37513 14ZM13.3751 14H14.6251C14.9714 14 15.2501 14.2788 15.2501 14.625V15.875C15.2501 16.2213 14.9714 16.5 14.6251 16.5H13.3751C13.2094 16.5 13.0504 16.4342 12.9332 16.3169C12.816 16.1997 12.7501 16.0408 12.7501 15.875V14.625C12.7501 14.2788 13.0289 14 13.3751 14ZM18.3751 14H19.6251C19.9714 14 20.2501 14.2788 20.2501 14.625V15.875C20.2501 16.2213 19.9714 16.5 19.6251 16.5H18.3751C18.2094 16.5 18.0504 16.4342 17.9332 16.3169C17.816 16.1997 17.7501 16.0408 17.7501 15.875V14.625C17.7501 14.2788 18.0289 14 18.3751 14Z" fill="black"/>
</svg>
