<svg width="28" height="28" viewBox="0 0 28 28" fill="none" xmlns="http://www.w3.org/2000/svg">
    <g clip-path="url(#clip0_376_1376)">
        <rect width="28" height="28" fill="#21A038"/>
        <path fill-rule="evenodd" clip-rule="evenodd" d="M13.8606 4.19996H13.8587C11.3659 4.19688 8.93188 5.19832 7.15069 6.93956C4.3116 9.70316 3.41907 14.0782 4.92173 17.7526C5.85968 20.0463 7.67186 21.9443 9.9346 22.9621C12.3383 24.0433 15.128 24.0806 17.559 23.0595C19.8487 22.0978 21.7052 20.2522 22.701 17.9777C23.4856 16.1858 23.7177 14.1692 23.378 12.2444L21.2963 13.7992C21.2963 14.9242 21.1111 16.0224 20.657 17.0579C19.8903 18.806 18.464 20.2259 16.7041 20.9661C14.8334 21.753 12.6931 21.7244 10.842 20.8907C9.10096 20.1065 7.71044 18.6501 6.98727 16.8842C6.21215 14.9915 6.23944 12.8158 7.06064 10.9434C7.8268 9.19648 9.25237 7.77737 11.0127 7.03679C13.3177 6.06709 15.9883 6.34473 18.0512 7.77905L19.9317 6.37436C18.2314 4.97905 16.0592 4.19715 13.8606 4.19996ZM21.5117 8.0093C21.9711 8.61128 22.3601 9.26528 22.6707 9.95817L13.8607 16.5399L10.1788 14.2008V11.3867L13.8607 13.7258L21.5117 8.0093Z" fill="white"/>
    </g>
    <defs>
        <clipPath id="clip0_376_1376">
            <rect width="28" height="28" rx="14" fill="white"/>
        </clipPath>
    </defs>
</svg>
