<svg width="32" height="32" viewBox="0 0 32 32" fill="none" xmlns="http://www.w3.org/2000/svg">
    <path d="M32 16C32 24.8366 24.8366 32 16 32C7.16344 32 0 24.8366 0 16C0 7.16344 7.16344 0 16 0C24.8366 0 32 7.16344 32 16Z" fill="white"/>
    <path d="M16 0.5C24.5604 0.5 31.5 7.43959 31.5 16C31.5 24.5604 24.5604 31.5 16 31.5C7.43959 31.5 0.5 24.5604 0.5 16C0.5 7.43959 7.43959 0.5 16 0.5Z" stroke="#01157E" stroke-opacity="0.5"/>
    <path d="M16 6C13.38 6 11.25 8.13 11.25 10.75C11.25 13.32 13.26 15.4 15.88 15.49C15.96 15.48 16.04 15.48 16.1 15.49C16.12 15.49 16.13 15.49 16.15 15.49C16.16 15.49 16.16 15.49 16.17 15.49C18.73 15.4 20.74 13.32 20.75 10.75C20.75 8.13 18.62 6 16 6Z" fill="#01157E"/>
    <path d="M21.08 18.1499C18.29 16.2899 13.74 16.2899 10.93 18.1499C9.65996 18.9999 8.95996 20.1499 8.95996 21.3799C8.95996 22.6099 9.65996 23.7499 10.92 24.5899C12.32 25.5299 14.16 25.9999 16 25.9999C17.84 25.9999 19.68 25.5299 21.08 24.5899C22.34 23.7399 23.04 22.5999 23.04 21.3599C23.03 20.1299 22.34 18.9899 21.08 18.1499Z" fill="#01157E"/>
</svg>
