<svg width="32" height="32" viewBox="0 0 32 32" fill="none" xmlns="http://www.w3.org/2000/svg">
    <path d="M16 0.5C24.5604 0.5 31.5 7.43959 31.5 16C31.5 24.5604 24.5604 31.5 16 31.5C7.43959 31.5 0.5 24.5604 0.5 16C0.5 7.43959 7.43959 0.5 16 0.5Z" fill="#E6E9F8" stroke="#D6DAE6"/>
    <path d="M19.75 8.82227H12.25C10 8.82227 8.5 10.3223 8.5 12.5723V17.0723C8.5 19.3223 10 20.8223 12.25 20.8223V22.4198C12.25 23.0198 12.9175 23.3798 13.4125 23.0423L16.75 20.8223H19.75C22 20.8223 23.5 19.3223 23.5 17.0723V12.5723C23.5 10.3223 22 8.82227 19.75 8.82227ZM16 17.9498C15.685 17.9498 15.4375 17.6948 15.4375 17.3873C15.4375 17.0798 15.685 16.8248 16 16.8248C16.315 16.8248 16.5625 17.0798 16.5625 17.3873C16.5625 17.6948 16.315 17.9498 16 17.9498ZM16.945 14.8373C16.6525 15.0323 16.5625 15.1598 16.5625 15.3698V15.5273C16.5625 15.8348 16.3075 16.0898 16 16.0898C15.6925 16.0898 15.4375 15.8348 15.4375 15.5273V15.3698C15.4375 14.4998 16.075 14.0723 16.315 13.9073C16.5925 13.7198 16.6825 13.5923 16.6825 13.3973C16.6825 13.0223 16.375 12.7148 16 12.7148C15.625 12.7148 15.3175 13.0223 15.3175 13.3973C15.3175 13.7048 15.0625 13.9598 14.755 13.9598C14.4475 13.9598 14.1925 13.7048 14.1925 13.3973C14.1925 12.3998 15.0025 11.5898 16 11.5898C16.9975 11.5898 17.8075 12.3998 17.8075 13.3973C17.8075 14.2523 17.1775 14.6798 16.945 14.8373Z" fill="#01157E"/>
</svg>
